<svg width="2835" height="11782" viewBox="0 0 2835 11782" fill="none" xmlns="http://www.w3.org/2000/svg">
<g filter="url(#filter0_f_2047_4)">
<path d="M761.997 913.076C670.308 742.384 740.866 579.287 575.516 577.719C363.762 631.588 424.987 852.212 413.331 927.784C398.761 1022.25 271.733 1148.27 363.564 1246.47C455.394 1344.67 378.558 1566.13 546.123 1490.03C713.689 1413.93 994.291 1457.15 1256.55 1306.18C1327.91 1265.1 1567.1 1215.33 1514.03 1124.17C1467.59 1044.4 1360.58 1028.1 1230.83 1060.01C1042.03 1106.45 866.125 1106.92 761.997 913.076Z" fill="url(#paint0_angular_2047_4)" fill-opacity="0.8"/>
</g>
<g opacity="0.59">
<g filter="url(#filter1_f_2047_4)">
<path d="M903.342 6304.38C799.152 6110.41 879.33 5925.08 691.434 5923.29C450.808 5984.51 520.381 6235.21 507.136 6321.09C490.579 6428.44 346.231 6571.64 450.583 6683.23C554.934 6794.82 467.622 7046.47 658.034 6959.99C848.447 6873.52 1167.31 6922.63 1465.32 6751.08C1546.42 6704.4 1818.22 6647.85 1757.91 6544.25C1705.14 6453.6 1583.54 6435.09 1436.1 6471.35C1221.55 6524.12 1021.67 6524.66 903.342 6304.38Z" fill="url(#paint1_angular_2047_4)" fill-opacity="0.8"/>
</g>
<g filter="url(#filter2_f_2047_4)">
<ellipse cx="256.258" cy="197.878" rx="256.258" ry="197.878" transform="matrix(0.967162 0.245476 0.271478 -0.959711 1912.32 7387.5)" fill="url(#paint2_angular_2047_4)"/>
</g>
<g filter="url(#filter3_f_2047_4)">
<ellipse cx="486.948" cy="376.013" rx="486.948" ry="376.013" transform="matrix(0.967162 0.245476 0.271478 -0.959711 1003.53 6810.68)" fill="#8F69DE" fill-opacity="0.6"/>
</g>
</g>
<g opacity="0.59">
<g filter="url(#filter4_f_2047_4)">
<path d="M2011.88 2418.03C2152.7 2562.84 2134.47 2735.82 2294.67 2701.15C2482.72 2602.78 2356.04 2403.07 2344.16 2327.53C2329.31 2233.09 2413.43 2083.57 2294.67 2008.81C2175.91 1934.05 2182.33 1703.33 2043.77 1813.5C1905.21 1923.67 1620.94 1943.32 1413.83 2146.53C1357.48 2201.82 1141.67 2302.24 1220.85 2378.68C1290.13 2445.57 1398.48 2437.9 1514.03 2378.68C1682.19 2292.52 1851.95 2253.57 2011.88 2418.03Z" fill="url(#paint3_angular_2047_4)" fill-opacity="0.8"/>
</g>
<g filter="url(#filter5_f_2047_4)">
<ellipse cx="225.799" cy="173.015" rx="225.799" ry="173.015" transform="matrix(-1 0 0 1 1018.5 2206.62)" fill="url(#paint4_angular_2047_4)"/>
</g>
<g filter="url(#filter6_f_2047_4)">
<ellipse cx="429.068" cy="328.767" rx="429.068" ry="328.767" transform="matrix(-1 0 0 1 1929.69 2500.86)" fill="#8F69DE" fill-opacity="0.6"/>
</g>
</g>
<g opacity="0.59">
<g filter="url(#filter7_f_2047_4)">
<path d="M972.76 3526.81C881.071 3356.12 951.629 3193.02 786.278 3191.45C574.524 3245.32 635.75 3465.95 624.094 3541.52C609.523 3635.98 482.496 3762 574.326 3860.2C666.157 3958.4 589.321 4179.86 756.886 4103.76C924.452 4027.66 1205.05 4070.88 1467.31 3919.92C1538.68 3878.84 1777.87 3829.07 1724.79 3737.9C1678.35 3658.13 1571.34 3641.84 1441.59 3673.75C1252.79 3720.18 1076.89 3720.66 972.76 3526.81Z" fill="url(#paint5_angular_2047_4)" fill-opacity="0.8"/>
</g>
<g filter="url(#filter8_f_2047_4)">
<ellipse cx="225.51" cy="174.135" rx="225.51" ry="174.135" transform="matrix(0.967162 0.245476 0.271478 -0.959711 1860.67 4207.75)" fill="url(#paint6_angular_2047_4)"/>
</g>
<g filter="url(#filter9_f_2047_4)">
<ellipse cx="428.52" cy="330.896" rx="428.52" ry="330.896" transform="matrix(0.967162 0.245476 0.271478 -0.959711 1060.93 3700.14)" fill="#8F69DE" fill-opacity="0.6"/>
</g>
</g>
<g opacity="0.59">
<g filter="url(#filter10_f_2047_4)">
<path d="M972.76 4867.1C881.071 4696.4 951.629 4533.31 786.278 4531.74C574.524 4585.61 635.75 4806.23 624.094 4881.8C609.523 4976.27 482.496 5102.29 574.326 5200.49C666.157 5298.69 589.321 5520.15 756.886 5444.05C924.452 5367.95 1205.05 5411.17 1467.31 5260.2C1538.68 5219.12 1777.87 5169.35 1724.79 5078.19C1678.35 4998.42 1571.34 4982.12 1441.59 5014.03C1252.79 5060.47 1076.89 5060.94 972.76 4867.1Z" fill="url(#paint7_angular_2047_4)" fill-opacity="0.8"/>
</g>
<g filter="url(#filter11_f_2047_4)">
<ellipse cx="225.51" cy="174.135" rx="225.51" ry="174.135" transform="matrix(0.967162 0.245476 0.271478 -0.959711 1860.67 5709.43)" fill="url(#paint8_angular_2047_4)"/>
</g>
<g filter="url(#filter12_f_2047_4)">
<ellipse cx="428.52" cy="330.896" rx="428.52" ry="330.896" transform="matrix(0.967162 0.245476 0.271478 -0.959711 1060.93 5201.82)" fill="#8F69DE" fill-opacity="0.6"/>
</g>
</g>
<g filter="url(#filter13_f_2047_4)">
<path d="M1710.71 8668.19C2033.1 8941.89 2127.12 9334.77 2352.69 9200.67C2576.63 8914.41 2237.45 8513.07 2165.42 8348.5C2075.38 8142.78 2100.85 7779.01 1862.49 7654C1624.14 7528.99 1470.8 7011.29 1332.48 7306.42C1194.16 7601.54 764.244 7745.98 584.778 8273.19C535.94 8416.65 270.105 8717.29 447.847 8860.07C603.371 8985 767.103 8929.53 905.592 8756.38C1107.12 8504.41 1344.59 8357.36 1710.71 8668.19Z" fill="url(#paint9_angular_2047_4)" fill-opacity="0.35"/>
</g>
<g filter="url(#filter14_f_2047_4)">
<ellipse cx="1040.3" cy="803.3" rx="1040.3" ry="803.3" transform="matrix(-0.967162 0.245476 0.271478 0.959711 2246.72 9596.59)" fill="#8F69DE" fill-opacity="0.6"/>
</g>
<g filter="url(#filter15_f_2047_4)">
<ellipse cx="225.51" cy="174.135" rx="225.51" ry="174.135" transform="matrix(0.967162 0.245476 0.271478 -0.959711 1506.21 1520.79)" fill="url(#paint10_angular_2047_4)"/>
</g>
<g filter="url(#filter16_f_2047_4)">
<ellipse cx="428.52" cy="330.896" rx="428.52" ry="330.896" transform="matrix(0.967162 0.245476 0.271478 -0.959711 1238.16 894.129)" fill="#8F69DE" fill-opacity="0.6"/>
</g>
<defs>
<filter id="filter0_f_2047_4" x="130.496" y="377.719" width="1591.15" height="1327.93" filterUnits="userSpaceOnUse" color-interpolation-filters="sRGB">
<feFlood flood-opacity="0" result="BackgroundImageFix"/>
<feBlend mode="normal" in="SourceGraphic" in2="BackgroundImageFix" result="shape"/>
<feGaussianBlur stdDeviation="100" result="effect1_foregroundBlur_2047_4"/>
</filter>
<filter id="filter1_f_2047_4" x="213.007" y="5723.29" width="1753.56" height="1454.45" filterUnits="userSpaceOnUse" color-interpolation-filters="sRGB">
<feFlood flood-opacity="0" result="BackgroundImageFix"/>
<feBlend mode="normal" in="SourceGraphic" in2="BackgroundImageFix" result="shape"/>
<feGaussianBlur stdDeviation="100" result="effect1_foregroundBlur_2047_4"/>
</filter>
<filter id="filter2_f_2047_4" x="1717.24" y="6817.41" width="993.276" height="886.189" filterUnits="userSpaceOnUse" color-interpolation-filters="sRGB">
<feFlood flood-opacity="0" result="BackgroundImageFix"/>
<feBlend mode="normal" in="SourceGraphic" in2="BackgroundImageFix" result="shape"/>
<feGaussianBlur stdDeviation="121.493" result="effect1_foregroundBlur_2047_4"/>
</filter>
<filter id="filter3_f_2047_4" x="748.275" y="5842.81" width="1656.58" height="1453.09" filterUnits="userSpaceOnUse" color-interpolation-filters="sRGB">
<feFlood flood-opacity="0" result="BackgroundImageFix"/>
<feBlend mode="normal" in="SourceGraphic" in2="BackgroundImageFix" result="shape"/>
<feGaussianBlur stdDeviation="173.149" result="effect1_foregroundBlur_2047_4"/>
</filter>
<filter id="filter4_f_2047_4" x="1003.59" y="1584.2" width="1593.29" height="1321.43" filterUnits="userSpaceOnUse" color-interpolation-filters="sRGB">
<feFlood flood-opacity="0" result="BackgroundImageFix"/>
<feBlend mode="normal" in="SourceGraphic" in2="BackgroundImageFix" result="shape"/>
<feGaussianBlur stdDeviation="100" result="effect1_foregroundBlur_2047_4"/>
</filter>
<filter id="filter5_f_2047_4" x="323.915" y="1963.63" width="937.57" height="832.003" filterUnits="userSpaceOnUse" color-interpolation-filters="sRGB">
<feFlood flood-opacity="0" result="BackgroundImageFix"/>
<feBlend mode="normal" in="SourceGraphic" in2="BackgroundImageFix" result="shape"/>
<feGaussianBlur stdDeviation="121.493" result="effect1_foregroundBlur_2047_4"/>
</filter>
<filter id="filter6_f_2047_4" x="725.252" y="2154.56" width="1550.73" height="1350.13" filterUnits="userSpaceOnUse" color-interpolation-filters="sRGB">
<feFlood flood-opacity="0" result="BackgroundImageFix"/>
<feBlend mode="normal" in="SourceGraphic" in2="BackgroundImageFix" result="shape"/>
<feGaussianBlur stdDeviation="173.149" result="effect1_foregroundBlur_2047_4"/>
</filter>
<filter id="filter7_f_2047_4" x="341.259" y="2991.45" width="1591.15" height="1327.93" filterUnits="userSpaceOnUse" color-interpolation-filters="sRGB">
<feFlood flood-opacity="0" result="BackgroundImageFix"/>
<feBlend mode="normal" in="SourceGraphic" in2="BackgroundImageFix" result="shape"/>
<feGaussianBlur stdDeviation="100" result="effect1_foregroundBlur_2047_4"/>
</filter>
<filter id="filter8_f_2047_4" x="1659.85" y="3676.9" width="932.405" height="838.167" filterUnits="userSpaceOnUse" color-interpolation-filters="sRGB">
<feFlood flood-opacity="0" result="BackgroundImageFix"/>
<feBlend mode="normal" in="SourceGraphic" in2="BackgroundImageFix" result="shape"/>
<feGaussianBlur stdDeviation="121.493" result="effect1_foregroundBlur_2047_4"/>
</filter>
<filter id="filter9_f_2047_4" x="794.75" y="2806.85" width="1540.92" height="1361.84" filterUnits="userSpaceOnUse" color-interpolation-filters="sRGB">
<feFlood flood-opacity="0" result="BackgroundImageFix"/>
<feBlend mode="normal" in="SourceGraphic" in2="BackgroundImageFix" result="shape"/>
<feGaussianBlur stdDeviation="173.149" result="effect1_foregroundBlur_2047_4"/>
</filter>
<filter id="filter10_f_2047_4" x="341.259" y="4331.74" width="1591.15" height="1327.93" filterUnits="userSpaceOnUse" color-interpolation-filters="sRGB">
<feFlood flood-opacity="0" result="BackgroundImageFix"/>
<feBlend mode="normal" in="SourceGraphic" in2="BackgroundImageFix" result="shape"/>
<feGaussianBlur stdDeviation="100" result="effect1_foregroundBlur_2047_4"/>
</filter>
<filter id="filter11_f_2047_4" x="1659.85" y="5178.58" width="932.405" height="838.168" filterUnits="userSpaceOnUse" color-interpolation-filters="sRGB">
<feFlood flood-opacity="0" result="BackgroundImageFix"/>
<feBlend mode="normal" in="SourceGraphic" in2="BackgroundImageFix" result="shape"/>
<feGaussianBlur stdDeviation="121.493" result="effect1_foregroundBlur_2047_4"/>
</filter>
<filter id="filter12_f_2047_4" x="794.75" y="4308.52" width="1540.92" height="1361.84" filterUnits="userSpaceOnUse" color-interpolation-filters="sRGB">
<feFlood flood-opacity="0" result="BackgroundImageFix"/>
<feBlend mode="normal" in="SourceGraphic" in2="BackgroundImageFix" result="shape"/>
<feGaussianBlur stdDeviation="173.149" result="effect1_foregroundBlur_2047_4"/>
</filter>
<filter id="filter13_f_2047_4" x="187.369" y="7016.79" width="2440.73" height="2410.99" filterUnits="userSpaceOnUse" color-interpolation-filters="sRGB">
<feFlood flood-opacity="0" result="BackgroundImageFix"/>
<feBlend mode="normal" in="SourceGraphic" in2="BackgroundImageFix" result="shape"/>
<feGaussianBlur stdDeviation="100" result="effect1_foregroundBlur_2047_4"/>
</filter>
<filter id="filter14_f_2047_4" x="82.6527" y="9464.24" width="2752.02" height="2317.29" filterUnits="userSpaceOnUse" color-interpolation-filters="sRGB">
<feFlood flood-opacity="0" result="BackgroundImageFix"/>
<feBlend mode="normal" in="SourceGraphic" in2="BackgroundImageFix" result="shape"/>
<feGaussianBlur stdDeviation="173.149" result="effect1_foregroundBlur_2047_4"/>
</filter>
<filter id="filter15_f_2047_4" x="1305.39" y="989.946" width="932.405" height="838.167" filterUnits="userSpaceOnUse" color-interpolation-filters="sRGB">
<feFlood flood-opacity="0" result="BackgroundImageFix"/>
<feBlend mode="normal" in="SourceGraphic" in2="BackgroundImageFix" result="shape"/>
<feGaussianBlur stdDeviation="121.493" result="effect1_foregroundBlur_2047_4"/>
</filter>
<filter id="filter16_f_2047_4" x="971.983" y="0.834351" width="1540.92" height="1361.84" filterUnits="userSpaceOnUse" color-interpolation-filters="sRGB">
<feFlood flood-opacity="0" result="BackgroundImageFix"/>
<feBlend mode="normal" in="SourceGraphic" in2="BackgroundImageFix" result="shape"/>
<feGaussianBlur stdDeviation="173.149" result="effect1_foregroundBlur_2047_4"/>
</filter>
<radialGradient id="paint0_angular_2047_4" cx="0" cy="0" r="1" gradientUnits="userSpaceOnUse" gradientTransform="translate(886.968 1006.1) rotate(128.65) scale(414.467 652.169)">
<stop offset="0.0785972" stop-color="#561BBE"/>
<stop offset="0.438386" stop-color="#70E6FB"/>
<stop offset="0.613412" stop-color="#FBF8B3"/>
<stop offset="0.847376" stop-color="#FA8792"/>
</radialGradient>
<radialGradient id="paint1_angular_2047_4" cx="0" cy="0" r="1" gradientUnits="userSpaceOnUse" gradientTransform="translate(1045.35 6410.08) rotate(128.65) scale(470.979 741.091)">
<stop offset="0.0785972" stop-color="#561BBE"/>
<stop offset="0.438386" stop-color="#70E6FB"/>
<stop offset="0.613412" stop-color="#FBF8B3"/>
<stop offset="0.847376" stop-color="#FA8792"/>
</radialGradient>
<radialGradient id="paint2_angular_2047_4" cx="0" cy="0" r="1" gradientUnits="userSpaceOnUse" gradientTransform="translate(229.435 150.376) rotate(112.231) scale(171.353 290.994)">
<stop offset="0.0785972" stop-color="#561BBE"/>
<stop offset="0.367669" stop-color="white"/>
<stop offset="0.571078" stop-color="#6842B8"/>
<stop offset="0.847376" stop-color="#FA8792"/>
</radialGradient>
<radialGradient id="paint3_angular_2047_4" cx="0" cy="0" r="1" gradientUnits="userSpaceOnUse" gradientTransform="translate(1862.69 2355.52) rotate(-67.7689) scale(398.959 677.519)">
<stop offset="0.0785972" stop-color="#561BBE"/>
<stop offset="0.438386" stop-color="#70E6FB"/>
<stop offset="0.613412" stop-color="#FBF8B3"/>
<stop offset="0.847376" stop-color="#FA8792"/>
</radialGradient>
<radialGradient id="paint4_angular_2047_4" cx="0" cy="0" r="1" gradientUnits="userSpaceOnUse" gradientTransform="translate(202.164 131.482) rotate(112.387) scale(149.989 256.12)">
<stop offset="0.0785972" stop-color="#561BBE"/>
<stop offset="0.367669" stop-color="white"/>
<stop offset="0.571078" stop-color="#6842B8"/>
<stop offset="0.847376" stop-color="#FA8792"/>
</radialGradient>
<radialGradient id="paint5_angular_2047_4" cx="0" cy="0" r="1" gradientUnits="userSpaceOnUse" gradientTransform="translate(1097.73 3619.83) rotate(128.65) scale(414.467 652.169)">
<stop offset="0.0785972" stop-color="#561BBE"/>
<stop offset="0.438386" stop-color="#70E6FB"/>
<stop offset="0.613412" stop-color="#FBF8B3"/>
<stop offset="0.847376" stop-color="#FA8792"/>
</radialGradient>
<radialGradient id="paint6_angular_2047_4" cx="0" cy="0" r="1" gradientUnits="userSpaceOnUse" gradientTransform="translate(201.906 132.333) rotate(112.231) scale(150.792 256.078)">
<stop offset="0.0785972" stop-color="#561BBE"/>
<stop offset="0.367669" stop-color="white"/>
<stop offset="0.571078" stop-color="#6842B8"/>
<stop offset="0.847376" stop-color="#FA8792"/>
</radialGradient>
<radialGradient id="paint7_angular_2047_4" cx="0" cy="0" r="1" gradientUnits="userSpaceOnUse" gradientTransform="translate(1097.73 4960.12) rotate(128.65) scale(414.467 652.169)">
<stop offset="0.0785972" stop-color="#561BBE"/>
<stop offset="0.438386" stop-color="#70E6FB"/>
<stop offset="0.613412" stop-color="#FBF8B3"/>
<stop offset="0.847376" stop-color="#FA8792"/>
</radialGradient>
<radialGradient id="paint8_angular_2047_4" cx="0" cy="0" r="1" gradientUnits="userSpaceOnUse" gradientTransform="translate(201.906 132.333) rotate(112.231) scale(150.792 256.078)">
<stop offset="0.0785972" stop-color="#561BBE"/>
<stop offset="0.367669" stop-color="white"/>
<stop offset="0.571078" stop-color="#6842B8"/>
<stop offset="0.847376" stop-color="#FA8792"/>
</radialGradient>
<radialGradient id="paint9_angular_2047_4" cx="0" cy="0" r="1" gradientUnits="userSpaceOnUse" gradientTransform="translate(1433.53 8581.32) rotate(-91.6833) scale(878.776 1149.85)">
<stop offset="0.0785972" stop-color="#561BBE"/>
<stop offset="0.438386" stop-color="#70E6FB"/>
<stop offset="0.613412" stop-color="#FBF8B3"/>
<stop offset="0.847376" stop-color="#FA8792"/>
</radialGradient>
<radialGradient id="paint10_angular_2047_4" cx="0" cy="0" r="1" gradientUnits="userSpaceOnUse" gradientTransform="translate(201.906 132.333) rotate(112.231) scale(150.792 256.078)">
<stop offset="0.0785972" stop-color="#561BBE"/>
<stop offset="0.367669" stop-color="white"/>
<stop offset="0.571078" stop-color="#6842B8"/>
<stop offset="0.847376" stop-color="#FA8792"/>
</radialGradient>
</defs>
</svg>
