<svg width="1728" height="950" viewBox="0 0 1728 950" fill="none" xmlns="http://www.w3.org/2000/svg">
<g clip-path="url(#clip0_206_1066)">
<rect width="1728" height="950" fill="#1E2830"/>
<path d="M361.333 800.391C361.333 801.863 362.527 803.057 364 803.057C365.473 803.057 366.667 801.863 366.667 800.391C366.667 798.918 365.473 797.724 364 797.724C362.527 797.724 361.333 798.918 361.333 800.391ZM408.333 805.891C408.333 807.363 409.527 808.557 411 808.557C412.473 808.557 413.667 807.363 413.667 805.891C413.667 804.418 412.473 803.224 411 803.224C409.527 803.224 408.333 804.418 408.333 805.891ZM364.098 800.881C368.641 799.973 376.448 799.151 385.058 799.652C393.673 800.154 403.046 801.978 410.754 806.326L411.246 805.455C403.354 801.003 393.811 799.161 385.117 798.654C376.419 798.147 368.526 798.976 363.902 799.9L364.098 800.881Z" fill="black"/>
<g filter="url(#filter0_f_206_1066)">
<path d="M396.888 490.658C321.125 349.615 379.427 214.848 242.798 213.552C67.8245 258.064 118.415 440.366 108.784 502.811C96.7443 580.868 -8.21888 684.998 67.6609 766.141C143.541 847.285 80.0509 1030.28 218.511 967.393C356.97 904.511 588.833 940.227 805.534 815.484C864.505 781.538 1062.15 740.414 1018.29 665.083C979.919 599.168 891.495 585.705 784.286 612.073C628.276 650.443 482.929 650.835 396.888 490.658Z" fill="url(#paint0_angular_206_1066)" fill-opacity="0.8"/>
</g>
<g filter="url(#filter1_f_206_1066)">
<ellipse cx="186.339" cy="143.888" rx="186.339" ry="143.888" transform="matrix(0.967162 0.245476 0.271478 -0.959711 1011.84 992.815)" fill="url(#paint1_angular_206_1066)"/>
</g>
<g filter="url(#filter2_f_206_1066)">
<ellipse cx="354.087" cy="273.42" rx="354.087" ry="273.42" transform="matrix(0.967162 0.245476 0.271478 -0.959711 790.343 475.002)" fill="#8F69DE" fill-opacity="0.6"/>
</g>
</g>
<defs>
<filter id="filter0_f_206_1066" x="-159.663" y="13.5518" width="1384.25" height="1166.75" filterUnits="userSpaceOnUse" color-interpolation-filters="sRGB">
<feFlood flood-opacity="0" result="BackgroundImageFix"/>
<feBlend mode="normal" in="SourceGraphic" in2="BackgroundImageFix" result="shape"/>
<feGaussianBlur stdDeviation="100" result="effect1_foregroundBlur_206_1066"/>
</filter>
<filter id="filter1_f_206_1066" x="803.689" y="511.97" width="854.861" height="776.992" filterUnits="userSpaceOnUse" color-interpolation-filters="sRGB">
<feFlood flood-opacity="0" result="BackgroundImageFix"/>
<feBlend mode="normal" in="SourceGraphic" in2="BackgroundImageFix" result="shape"/>
<feGaussianBlur stdDeviation="121.493" result="effect1_foregroundBlur_206_1066"/>
</filter>
<filter id="filter2_f_206_1066" x="510.248" y="-323.28" width="1393.57" height="1245.6" filterUnits="userSpaceOnUse" color-interpolation-filters="sRGB">
<feFlood flood-opacity="0" result="BackgroundImageFix"/>
<feBlend mode="normal" in="SourceGraphic" in2="BackgroundImageFix" result="shape"/>
<feGaussianBlur stdDeviation="173.149" result="effect1_foregroundBlur_206_1066"/>
</filter>
<radialGradient id="paint0_angular_206_1066" cx="0" cy="0" r="1" gradientUnits="userSpaceOnUse" gradientTransform="translate(500.151 567.521) rotate(128.65) scale(342.475 538.889)">
<stop offset="0.0785972" stop-color="#561BBE"/>
<stop offset="0.438386" stop-color="#70E6FB"/>
<stop offset="0.613412" stop-color="#FBF8B3"/>
<stop offset="0.847376" stop-color="#FA8792"/>
</radialGradient>
<radialGradient id="paint1_angular_206_1066" cx="0" cy="0" r="1" gradientUnits="userSpaceOnUse" gradientTransform="translate(166.835 109.347) rotate(112.231) scale(124.6 211.598)">
<stop offset="0.0785972" stop-color="#561BBE"/>
<stop offset="0.367669" stop-color="white"/>
<stop offset="0.571078" stop-color="#6842B8"/>
<stop offset="0.847376" stop-color="#FA8792"/>
</radialGradient>
<clipPath id="clip0_206_1066">
<rect width="1728" height="950" fill="white"/>
</clipPath>
</defs>
</svg>
