<svg width="62" height="63" viewBox="0 0 62 63" fill="none" xmlns="http://www.w3.org/2000/svg">
<path d="M62 25.5216C62 22.6606 60.9364 21.5856 58.0782 21.5827C53.3402 21.577 48.5993 21.5827 43.8613 21.577C43.4091 21.577 42.9569 21.5344 42.4308 21.5059V19.8337C42.4308 14.6207 42.4393 9.40777 42.4251 4.1948C42.4194 1.90542 41.3046 0.779212 39.0578 0.779212C27.1644 0.776368 15.2682 0.776368 3.37474 0.782056C1.25315 0.782056 0.010347 2.01064 0.00750309 4.11233C-0.00102877 12.2147 -0.00387273 20.32 0.00750309 28.4224C0.010347 30.4587 1.2105 31.6617 3.26383 31.7527C3.81271 31.7783 4.36728 31.7556 5.03846 31.7556V41.9113C7.43591 38.6095 9.63713 35.5579 11.8639 32.5263C12.0915 32.2163 12.4583 31.7982 12.7712 31.7897C15.0207 31.7271 17.276 31.7556 19.5938 31.7556C19.5938 37.6397 19.591 43.3191 19.5938 49.0013C19.5938 51.4983 20.629 52.5363 23.1032 52.5363C31.4901 52.5363 39.8797 52.5562 48.2665 52.5136C49.2278 52.5079 49.8193 52.8065 50.3597 53.5687C52.4699 56.5577 54.6285 59.5154 56.9833 62.7802V52.596C57.4838 52.5704 57.7654 52.5448 58.0469 52.5392C61.1383 52.4965 62 51.6291 62 48.5519C62 40.8761 62 33.1974 62 25.5216ZM13.138 30.2795C12.0886 30.2739 11.4118 30.5298 10.8088 31.4427C9.53759 33.3652 8.1213 35.1939 6.51731 37.4008V30.2994C5.52193 30.2994 4.59764 30.3108 3.67052 30.2994C1.99258 30.2739 1.43517 29.742 1.43517 28.1068C1.42664 20.1977 1.42664 12.2915 1.43517 4.3825C1.43517 2.73301 1.98121 2.20972 3.66767 2.20688C15.4104 2.20119 27.153 2.20119 38.8986 2.20688C40.4798 2.20688 40.9946 2.72732 40.9946 4.337C41.0002 12.246 41.0002 20.1522 40.9946 28.0613C40.9946 29.8074 40.4826 30.2994 38.708 30.2994C30.1847 30.3023 21.6614 30.3194 13.138 30.2767V30.2795ZM60.5752 48.9273C60.5752 50.5996 60.0547 51.103 58.3711 51.1143C57.4781 51.12 56.588 51.1143 55.5073 51.1143V58.2299C53.8976 56.0202 52.4784 54.1716 51.1788 52.2434C50.61 51.3987 49.9985 51.0859 48.9832 51.0916C40.4571 51.1314 31.9309 51.1143 23.4076 51.1143C21.3997 51.1143 21.0329 50.7446 21.03 48.7197C21.03 43.1342 21.03 37.5487 21.03 31.7556H22.5856C27.938 31.7556 33.2903 31.7556 38.6426 31.7556C41.3643 31.7556 42.4222 30.7033 42.4308 28.0044C42.4364 26.4061 42.4308 24.8078 42.4308 23.1327C42.9313 23.1014 43.2953 23.0587 43.6622 23.0587C48.5396 23.0559 53.4198 23.0474 58.2972 23.0587C60.0832 23.0644 60.5752 23.5735 60.5752 25.3339C60.578 33.1974 60.5809 41.0581 60.5752 48.9217V48.9273Z" fill="white"/>
<path d="M32.9293 21.1583C34.1834 20.8484 35.1163 20.7346 35.9552 21.8324C36.3619 21.3347 36.6776 20.9479 37.0928 20.4388C36.6406 20.1089 36.2567 19.8302 35.85 19.5373C37.2179 17.3759 37.3488 15.1519 36.6321 12.9279C36.0263 11.0481 34.6811 9.8451 32.6392 9.58914C28.2225 9.03457 26.1607 11.9098 26.263 15.7122C26.3683 19.6795 29.2549 22.0656 32.9321 21.1583H32.9293ZM29.0985 13.1896C29.3317 11.9838 30.4664 11.4974 31.7462 11.5173C33.0601 11.5373 33.9104 12.2141 34.3455 13.3545C34.8944 14.7993 34.8916 16.2753 34.1863 17.8224C33.7199 17.4498 33.3303 17.137 32.898 16.7929C32.5283 17.2109 32.1927 17.5892 31.6751 18.175C32.1017 18.4026 32.4799 18.6045 32.9691 18.8633C31.038 19.6454 29.4938 19.2216 29.0842 17.592C28.7344 16.2042 28.8197 14.6144 29.0956 13.1896H29.0985Z" fill="white"/>
<path d="M19.9066 9.81167C18.8998 9.77754 18.294 10.0164 18.1433 11.0772C18.0978 11.3958 17.9186 11.6944 17.8077 12.0044C16.764 14.9479 15.7231 17.8913 14.6708 20.869C16.1781 21.1391 17.3584 21.1505 17.6257 19.3588C17.6655 19.1 18.1718 18.7531 18.4874 18.7246C19.4259 18.6393 20.3815 18.6421 21.32 18.7246C21.6328 18.7531 22.1362 19.0915 22.1789 19.3503C22.4917 21.2102 23.7288 21.1505 25.2077 20.8491C24.0445 17.5643 22.8245 14.3108 21.758 11.009C21.4139 9.94534 20.8422 9.84011 19.9037 9.80883L19.9066 9.81167ZM18.4732 16.6912C18.9254 15.3005 19.3491 13.9951 19.898 12.303C20.4526 13.9724 20.8906 15.2863 21.357 16.6912H18.4732Z" fill="white"/>
<path d="M6.07939 20.8998H8.25502V16.2101H13.1438V14.3559H8.36309V11.7793H13.8405V9.89941H6.07655V20.8998H6.07939Z" fill="white"/>
<path d="M40.7728 40.8386C39.6239 40.8557 39.0494 41.5126 38.9783 42.599C38.9157 43.5603 39.7831 44.3651 40.7842 44.3622C41.7909 44.3594 42.6868 43.546 42.5901 42.5905C42.4877 41.5439 41.9502 40.8187 40.7728 40.8357V40.8386Z" fill="white"/>
<path d="M31.7916 40.8413C30.637 40.7986 29.98 41.4726 29.9487 42.5363C29.9146 43.6056 30.5545 44.2796 31.7546 44.3621C32.8012 44.3194 33.5008 43.7364 33.5321 42.6415C33.5634 41.5494 32.9292 40.8839 31.7916 40.8413Z" fill="white"/>
<path d="M49.8792 40.847C48.753 40.8214 48.0961 41.4158 48.0591 42.5562C48.0221 43.7194 48.7019 44.2512 49.6546 44.3507C50.849 44.3593 51.5942 43.6255 51.5543 42.5619C51.5145 41.5039 50.9543 40.8726 49.8792 40.847Z" fill="white"/>
</svg>
