<svg width="175" height="56" viewBox="0 0 175 56" fill="none" xmlns="http://www.w3.org/2000/svg">
<path d="M75.3375 22.0158C75.7375 22.0158 76.1215 21.9758 76.4895 21.8958C76.8575 21.8158 77.2255 21.7198 77.5935 21.6078V24.2718C77.2095 24.4318 76.7295 24.5678 76.1535 24.6798C75.5935 24.8078 74.9775 24.8718 74.3055 24.8718C73.5215 24.8718 72.8175 24.7438 72.1935 24.4878C71.5855 24.2318 71.0975 23.7918 70.7295 23.1678C70.3775 22.5278 70.2015 21.6478 70.2015 20.5278V14.2158H68.4975V12.7038L70.4655 11.5038L71.4975 8.74383H73.7775V11.5278H77.4495V14.2158H73.7775V20.5278C73.7775 21.0238 73.9215 21.3998 74.2095 21.6558C74.4975 21.8958 74.8735 22.0158 75.3375 22.0158ZM83.5597 10.1118C83.5597 10.7518 83.5357 11.3678 83.4877 11.9598C83.4557 12.5518 83.4237 12.9678 83.3917 13.2078H83.5837C83.8717 12.7598 84.2077 12.3998 84.5917 12.1278C84.9757 11.8398 85.3997 11.6318 85.8637 11.5038C86.3437 11.3598 86.8477 11.2878 87.3757 11.2878C88.3197 11.2878 89.1437 11.4558 89.8477 11.7918C90.5517 12.1278 91.0957 12.6478 91.4797 13.3518C91.8797 14.0558 92.0797 14.9678 92.0797 16.0878V24.6318H88.5037V16.9758C88.5037 16.0318 88.3277 15.3278 87.9757 14.8638C87.6397 14.3838 87.1117 14.1438 86.3917 14.1438C85.6717 14.1438 85.1037 14.3118 84.6877 14.6478C84.2877 14.9838 83.9997 15.4718 83.8237 16.1118C83.6477 16.7518 83.5597 17.5358 83.5597 18.4638V24.6318H79.9837V6.39183H83.5597V10.1118ZM100.917 11.2878C102.133 11.2878 103.173 11.5198 104.037 11.9838C104.917 12.4478 105.597 13.1198 106.077 13.9998C106.557 14.8798 106.797 15.9598 106.797 17.2398V18.9678H98.3492C98.3812 19.9758 98.6772 20.7678 99.2372 21.3438C99.8132 21.9198 100.605 22.2078 101.613 22.2078C102.461 22.2078 103.229 22.1278 103.917 21.9678C104.605 21.7918 105.317 21.5278 106.053 21.1758V23.9358C105.413 24.2558 104.733 24.4878 104.013 24.6318C103.309 24.7918 102.453 24.8718 101.445 24.8718C100.133 24.8718 98.9732 24.6318 97.9652 24.1518C96.9572 23.6558 96.1652 22.9118 95.5892 21.9198C95.0132 20.9278 94.7252 19.6798 94.7252 18.1758C94.7252 16.6398 94.9812 15.3678 95.4932 14.3598C96.0212 13.3358 96.7492 12.5678 97.6772 12.0558C98.6052 11.5438 99.6852 11.2878 100.917 11.2878ZM100.941 13.8318C100.253 13.8318 99.6772 14.0558 99.2132 14.5038C98.7652 14.9518 98.5012 15.6478 98.4212 16.5918H103.437C103.437 16.0638 103.341 15.5918 103.149 15.1758C102.973 14.7598 102.701 14.4318 102.333 14.1918C101.965 13.9518 101.501 13.8318 100.941 13.8318ZM75.1935 36.2638C76.9535 36.2638 78.2975 36.6478 79.2255 37.4158C80.1695 38.1678 80.6415 39.3278 80.6415 40.8958V49.6318H78.1455L77.4495 47.8558H77.3535C76.9855 48.3198 76.6015 48.7038 76.2015 49.0078C75.8175 49.3118 75.3695 49.5278 74.8575 49.6558C74.3615 49.7998 73.7455 49.8718 73.0095 49.8718C72.2415 49.8718 71.5455 49.7278 70.9215 49.4398C70.3135 49.1358 69.8335 48.6798 69.4815 48.0718C69.1295 47.4478 68.9535 46.6638 68.9535 45.7198C68.9535 44.3278 69.4415 43.3038 70.4175 42.6478C71.3935 41.9758 72.8575 41.6078 74.8095 41.5438L77.0895 41.4718V40.8958C77.0895 40.2078 76.9055 39.7038 76.5375 39.3838C76.1855 39.0638 75.6895 38.9038 75.0495 38.9038C74.4095 38.9038 73.7855 38.9998 73.1775 39.1918C72.5695 39.3678 71.9615 39.5918 71.3535 39.8638L70.1775 37.4398C70.8815 37.0718 71.6575 36.7838 72.5055 36.5758C73.3695 36.3678 74.2655 36.2638 75.1935 36.2638ZM75.6975 43.6078C74.5455 43.6398 73.7455 43.8478 73.2975 44.2318C72.8495 44.6158 72.6255 45.1198 72.6255 45.7438C72.6255 46.2878 72.7855 46.6798 73.1055 46.9198C73.4255 47.1438 73.8415 47.2558 74.3535 47.2558C75.1215 47.2558 75.7695 47.0318 76.2975 46.5838C76.8255 46.1198 77.0895 45.4718 77.0895 44.6398V43.5598L75.6975 43.6078ZM89.3899 49.8718C88.0939 49.8718 86.9899 49.6398 86.0779 49.1758C85.1659 48.6958 84.4699 47.9598 83.9899 46.9678C83.5099 45.9758 83.2699 44.7038 83.2699 43.1518C83.2699 41.5518 83.5419 40.2478 84.0859 39.2398C84.6299 38.2318 85.3819 37.4878 86.3419 37.0078C87.3179 36.5278 88.4379 36.2878 89.7019 36.2878C90.5979 36.2878 91.3739 36.3758 92.0299 36.5518C92.7019 36.7278 93.2859 36.9358 93.7819 37.1758L92.7259 39.9358C92.1659 39.7118 91.6379 39.5278 91.1419 39.3838C90.6619 39.2398 90.1819 39.1678 89.7019 39.1678C89.0779 39.1678 88.5579 39.3198 88.1419 39.6238C87.7259 39.9118 87.4139 40.3518 87.2059 40.9438C87.0139 41.5198 86.9179 42.2478 86.9179 43.1278C86.9179 43.9918 87.0219 44.7118 87.2299 45.2878C87.4539 45.8478 87.7739 46.2718 88.1899 46.5598C88.6059 46.8318 89.1099 46.9678 89.7019 46.9678C90.4539 46.9678 91.1179 46.8718 91.6939 46.6798C92.2699 46.4718 92.8299 46.1918 93.3739 45.8398V48.8878C92.8299 49.2398 92.2539 49.4878 91.6459 49.6318C91.0539 49.7918 90.3019 49.8718 89.3899 49.8718ZM101.526 36.2638C103.286 36.2638 104.63 36.6478 105.558 37.4158C106.502 38.1678 106.974 39.3278 106.974 40.8958V49.6318H104.478L103.782 47.8558H103.686C103.318 48.3198 102.934 48.7038 102.534 49.0078C102.15 49.3118 101.702 49.5278 101.19 49.6558C100.694 49.7998 100.078 49.8718 99.342 49.8718C98.574 49.8718 97.878 49.7278 97.254 49.4398C96.646 49.1358 96.166 48.6798 95.814 48.0718C95.462 47.4478 95.286 46.6638 95.286 45.7198C95.286 44.3278 95.774 43.3038 96.75 42.6478C97.726 41.9758 99.19 41.6078 101.142 41.5438L103.422 41.4718V40.8958C103.422 40.2078 103.238 39.7038 102.87 39.3838C102.518 39.0638 102.022 38.9038 101.382 38.9038C100.742 38.9038 100.118 38.9998 99.51 39.1918C98.902 39.3678 98.294 39.5918 97.686 39.8638L96.51 37.4398C97.214 37.0718 97.99 36.7838 98.838 36.5758C99.702 36.3678 100.598 36.2638 101.526 36.2638ZM102.03 43.6078C100.878 43.6398 100.078 43.8478 99.63 44.2318C99.182 44.6158 98.958 45.1198 98.958 45.7438C98.958 46.2878 99.118 46.6798 99.438 46.9198C99.758 47.1438 100.174 47.2558 100.686 47.2558C101.454 47.2558 102.102 47.0318 102.63 46.5838C103.158 46.1198 103.422 45.4718 103.422 44.6398V43.5598L102.03 43.6078ZM114.546 49.8718C113.09 49.8718 111.898 49.3038 110.97 48.1678C110.058 47.0158 109.602 45.3278 109.602 43.1038C109.602 40.8638 110.066 39.1678 110.994 38.0158C111.922 36.8638 113.138 36.2878 114.642 36.2878C115.266 36.2878 115.818 36.3758 116.298 36.5518C116.778 36.7118 117.186 36.9358 117.522 37.2238C117.874 37.5118 118.17 37.8398 118.41 38.2078H118.53C118.482 37.9518 118.426 37.5838 118.362 37.1038C118.298 36.6078 118.266 36.1038 118.266 35.5918V31.3918H121.842V49.6318H119.106L118.41 47.9278H118.266C118.042 48.2798 117.754 48.6078 117.402 48.9118C117.066 49.1998 116.666 49.4318 116.202 49.6078C115.738 49.7838 115.186 49.8718 114.546 49.8718ZM115.794 47.0158C116.786 47.0158 117.482 46.7278 117.882 46.1518C118.282 45.5598 118.49 44.6798 118.506 43.5118V43.1278C118.506 41.8478 118.306 40.8718 117.906 40.1998C117.522 39.5278 116.802 39.1918 115.746 39.1918C114.962 39.1918 114.346 39.5358 113.898 40.2238C113.45 40.8958 113.226 41.8718 113.226 43.1518C113.226 44.4318 113.45 45.3998 113.898 46.0558C114.346 46.6958 114.978 47.0158 115.794 47.0158ZM130.742 36.2878C131.958 36.2878 132.998 36.5198 133.862 36.9838C134.742 37.4478 135.422 38.1198 135.902 38.9998C136.382 39.8798 136.622 40.9598 136.622 42.2398V43.9678H128.174C128.206 44.9758 128.502 45.7678 129.062 46.3438C129.638 46.9198 130.43 47.2078 131.438 47.2078C132.286 47.2078 133.054 47.1278 133.742 46.9678C134.43 46.7918 135.142 46.5278 135.878 46.1758V48.9358C135.238 49.2558 134.558 49.4878 133.838 49.6318C133.134 49.7918 132.278 49.8718 131.27 49.8718C129.958 49.8718 128.798 49.6318 127.79 49.1518C126.782 48.6558 125.99 47.9118 125.414 46.9198C124.838 45.9278 124.55 44.6798 124.55 43.1758C124.55 41.6398 124.806 40.3678 125.318 39.3598C125.846 38.3358 126.574 37.5678 127.502 37.0558C128.43 36.5438 129.51 36.2878 130.742 36.2878ZM130.766 38.8318C130.078 38.8318 129.502 39.0558 129.038 39.5038C128.59 39.9518 128.326 40.6478 128.246 41.5918H133.262C133.262 41.0638 133.166 40.5918 132.974 40.1758C132.798 39.7598 132.526 39.4318 132.158 39.1918C131.79 38.9518 131.326 38.8318 130.766 38.8318ZM154.666 36.2878C156.154 36.2878 157.274 36.6718 158.026 37.4398C158.794 38.1918 159.178 39.4078 159.178 41.0878V49.6318H155.602V41.9758C155.602 41.0318 155.442 40.3278 155.122 39.8638C154.802 39.3838 154.306 39.1438 153.634 39.1438C152.69 39.1438 152.018 39.4798 151.618 40.1518C151.218 40.8238 151.018 41.7918 151.018 43.0558V49.6318H147.442V41.9758C147.442 41.3518 147.37 40.8318 147.226 40.4158C147.082 39.9998 146.866 39.6878 146.578 39.4798C146.29 39.2558 145.922 39.1438 145.474 39.1438C144.818 39.1438 144.298 39.3118 143.914 39.6478C143.53 39.9838 143.258 40.4718 143.098 41.1118C142.938 41.7518 142.858 42.5358 142.858 43.4638V49.6318H139.282V36.5278H142.018L142.498 38.2078H142.69C142.962 37.7598 143.298 37.3998 143.698 37.1278C144.098 36.8398 144.538 36.6318 145.018 36.5038C145.514 36.3598 146.01 36.2878 146.506 36.2878C147.466 36.2878 148.282 36.4478 148.954 36.7678C149.626 37.0718 150.138 37.5518 150.49 38.2078H150.802C151.202 37.5358 151.754 37.0478 152.458 36.7438C153.178 36.4398 153.914 36.2878 154.666 36.2878ZM160.748 36.5278H164.66L167.132 43.8958C167.212 44.1358 167.276 44.3758 167.324 44.6158C167.388 44.8558 167.436 45.1038 167.468 45.3598C167.516 45.6158 167.548 45.8878 167.564 46.1758H167.636C167.684 45.7598 167.748 45.3678 167.828 44.9998C167.924 44.6158 168.028 44.2478 168.14 43.8958L170.564 36.5278H174.404L168.86 51.3118C168.524 52.2078 168.084 52.9598 167.54 53.5678C167.012 54.1758 166.396 54.6318 165.692 54.9358C164.988 55.2398 164.22 55.3918 163.388 55.3918C162.988 55.3918 162.636 55.3678 162.332 55.3198C162.044 55.2878 161.788 55.2478 161.564 55.1998V52.3678C161.74 52.3998 161.948 52.4318 162.188 52.4638C162.444 52.4958 162.708 52.5118 162.98 52.5118C163.476 52.5118 163.9 52.4078 164.252 52.1998C164.62 51.9918 164.924 51.7038 165.164 51.3358C165.404 50.9838 165.596 50.5998 165.74 50.1838L165.956 49.5358L160.748 36.5278Z" fill="#FFFCFA"/>
<path d="M115.228 24.6318L110.236 11.5278H113.98L116.5 18.9918C116.596 19.2798 116.676 19.5838 116.74 19.9038C116.82 20.2238 116.876 20.5358 116.908 20.8398C116.956 21.1438 116.988 21.4238 117.004 21.6798H117.1C117.116 21.4078 117.148 21.1198 117.196 20.8158C117.244 20.5118 117.3 20.2078 117.364 19.9038C117.444 19.5838 117.532 19.2798 117.628 18.9918L120.148 11.5278H123.892L118.9 24.6318H115.228ZM129.108 11.5278V24.6318H125.532V11.5278H129.108ZM127.332 6.39183C127.86 6.39183 128.316 6.51983 128.7 6.77584C129.084 7.01584 129.276 7.47184 129.276 8.14384C129.276 8.79984 129.084 9.25584 128.7 9.51183C128.316 9.76784 127.86 9.89584 127.332 9.89584C126.788 9.89584 126.324 9.76784 125.94 9.51183C125.572 9.25584 125.388 8.79984 125.388 8.14384C125.388 7.47184 125.572 7.01584 125.94 6.77584C126.324 6.51983 126.788 6.39183 127.332 6.39183ZM136.181 10.6398C136.181 11.1358 136.165 11.6238 136.133 12.1038C136.101 12.5838 136.069 12.9598 136.037 13.2318H136.181C136.533 12.6878 137.005 12.2318 137.597 11.8638C138.189 11.4798 138.957 11.2878 139.901 11.2878C141.373 11.2878 142.565 11.8638 143.477 13.0158C144.389 14.1518 144.845 15.8318 144.845 18.0558C144.845 19.5438 144.629 20.7998 144.197 21.8238C143.781 22.8318 143.197 23.5918 142.445 24.1038C141.693 24.6158 140.813 24.8718 139.805 24.8718C138.845 24.8718 138.085 24.7038 137.525 24.3678C136.981 24.0158 136.533 23.6238 136.181 23.1918H135.941L135.341 24.6318H132.605V6.39183H136.181V10.6398ZM138.749 14.1438C138.125 14.1438 137.629 14.2718 137.261 14.5278C136.893 14.7838 136.621 15.1758 136.445 15.7038C136.285 16.2158 136.197 16.8638 136.181 17.6478V18.0318C136.181 19.2958 136.365 20.2718 136.733 20.9598C137.117 21.6318 137.805 21.9678 138.797 21.9678C139.533 21.9678 140.117 21.6318 140.549 20.9598C140.981 20.2718 141.197 19.2878 141.197 18.0078C141.197 16.7278 140.973 15.7678 140.525 15.1278C140.093 14.4718 139.501 14.1438 138.749 14.1438ZM152.952 11.2878C154.168 11.2878 155.208 11.5198 156.072 11.9838C156.952 12.4478 157.632 13.1198 158.112 13.9998C158.592 14.8798 158.832 15.9598 158.832 17.2398V18.9678H150.384C150.416 19.9758 150.712 20.7678 151.272 21.3438C151.848 21.9198 152.64 22.2078 153.648 22.2078C154.496 22.2078 155.264 22.1278 155.952 21.9678C156.64 21.7918 157.352 21.5278 158.088 21.1758V23.9358C157.448 24.2558 156.768 24.4878 156.048 24.6318C155.344 24.7918 154.488 24.8718 153.48 24.8718C152.168 24.8718 151.008 24.6318 150 24.1518C148.992 23.6558 148.2 22.9118 147.624 21.9198C147.048 20.9278 146.76 19.6798 146.76 18.1758C146.76 16.6398 147.016 15.3678 147.528 14.3598C148.056 13.3358 148.784 12.5678 149.712 12.0558C150.64 11.5438 151.72 11.2878 152.952 11.2878ZM152.976 13.8318C152.288 13.8318 151.712 14.0558 151.248 14.5038C150.8 14.9518 150.536 15.6478 150.456 16.5918H155.472C155.472 16.0638 155.376 15.5918 155.184 15.1758C155.008 14.7598 154.736 14.4318 154.368 14.1918C154 13.9518 153.536 13.8318 152.976 13.8318ZM170.636 20.7438C170.636 21.6238 170.428 22.3758 170.012 22.9998C169.596 23.6078 168.972 24.0718 168.14 24.3918C167.308 24.7118 166.276 24.8718 165.044 24.8718C164.132 24.8718 163.348 24.8078 162.692 24.6798C162.036 24.5678 161.38 24.3758 160.724 24.1038V21.1518C161.428 21.4718 162.188 21.7358 163.004 21.9438C163.82 22.1518 164.54 22.2558 165.164 22.2558C165.868 22.2558 166.364 22.1518 166.652 21.9438C166.956 21.7358 167.108 21.4638 167.108 21.1278C167.108 20.9038 167.044 20.7038 166.916 20.5278C166.804 20.3518 166.548 20.1518 166.148 19.9278C165.748 19.7038 165.124 19.4158 164.276 19.0638C163.46 18.7118 162.788 18.3678 162.26 18.0318C161.732 17.6798 161.34 17.2638 161.084 16.7838C160.828 16.2878 160.7 15.6718 160.7 14.9358C160.7 13.7198 161.172 12.8078 162.116 12.1998C163.06 11.5918 164.316 11.2878 165.884 11.2878C166.7 11.2878 167.476 11.3678 168.212 11.5278C168.948 11.6878 169.708 11.9518 170.492 12.3198L169.412 14.8878C168.98 14.6958 168.564 14.5278 168.164 14.3838C167.764 14.2398 167.372 14.1278 166.988 14.0478C166.62 13.9678 166.236 13.9278 165.836 13.9278C165.308 13.9278 164.908 13.9998 164.636 14.1438C164.38 14.2878 164.252 14.5038 164.252 14.7918C164.252 14.9998 164.316 15.1918 164.444 15.3678C164.588 15.5278 164.852 15.7038 165.236 15.8958C165.636 16.0878 166.22 16.3438 166.988 16.6638C167.74 16.9678 168.388 17.2878 168.932 17.6238C169.476 17.9438 169.892 18.3518 170.18 18.8478C170.484 19.3278 170.636 19.9598 170.636 20.7438Z" fill="#FF3701"/>
<circle cx="28.9455" cy="28" r="28" fill="white"/>
<path d="M43.6186 17.7236C43.0902 16.8037 42.1429 16.2544 41.0821 16.2544H37.1612C36.1852 16.2544 35.277 16.7385 34.7329 17.5488L32.674 20.6163C32.854 20.6855 33.0015 20.7938 33.115 20.9295C33.1306 20.9439 33.1476 20.9569 33.162 20.9726L35.234 17.8854C35.6659 17.2421 36.3861 16.8585 37.1612 16.8585H41.0821C41.9237 16.8585 42.6766 17.2943 43.0954 18.0237C43.5142 18.7531 43.5116 19.6234 43.0863 20.3502L32.3125 38.7961L22.7731 22.6336C22.9819 22.4196 23.1098 22.1286 23.1098 21.8063C23.1098 21.1513 22.5787 20.6203 21.9237 20.6203C21.2687 20.6203 20.7376 21.1513 20.7376 21.8063C20.7376 22.4613 21.2687 22.9924 21.9237 22.9924C22.0385 22.9924 22.1494 22.9754 22.2551 22.9441L32.3151 39.9887L43.6069 20.6542C44.1419 19.7382 44.1458 18.6422 43.6173 17.7223L43.6186 17.7236Z" fill="#FF1E00"/>
<path d="M17.5577 20.5407C17.1872 19.9027 17.4325 19.3377 17.5551 19.125C17.6778 18.9123 18.0431 18.4165 18.7816 18.4165H22.8539C23.3602 18.4165 23.8312 18.6905 24.083 19.1302L32.2524 33.4426L38.4724 22.494C38.9304 21.6889 38.3484 20.6895 37.422 20.6895C36.9875 20.6895 36.5856 20.923 36.3716 21.3014L32.2485 28.56L26.1825 17.9324C25.5027 16.7411 24.2279 16 22.8552 16H18.8221C17.4533 16 16.172 16.7111 15.4792 17.892C14.7707 19.0989 14.7681 20.5459 15.4687 21.7542L28.2349 43.7583C28.7059 44.5712 29.8842 44.5582 30.3382 43.7348C30.5431 43.363 30.5379 42.9128 30.3252 42.5449L17.559 20.5407H17.5577Z" fill="#FF1E00"/>
<path fill-rule="evenodd" clip-rule="evenodd" d="M32.5271 21.3208V21.3247L32.5297 21.3273C32.5219 21.3429 32.5206 21.3416 32.5089 21.3573L32.3001 21.6444C32.1018 21.9223 31.8878 22.2028 31.6894 22.4807L31.5368 22.6882C31.512 22.7234 31.4846 22.7573 31.4611 22.7926L31.3085 23L31.298 23.0144L31.3085 23.0105C31.3959 22.9648 31.4859 22.9204 31.5759 22.8735C31.6216 22.85 31.6634 22.8291 31.709 22.8043C31.7325 22.7913 31.8252 22.7417 31.8447 22.7365L32.441 22.4272C32.4632 22.4155 32.5115 22.3946 32.5284 22.3816V21.3416C32.548 21.3364 32.5402 21.3416 32.5715 21.3821L32.6837 21.5347C32.7359 21.6013 32.7829 21.6731 32.8338 21.7409L33.7367 22.9766C33.7367 22.9766 33.7393 22.9831 33.7406 22.9648L33.5188 21.6587L33.5149 21.6404C33.4744 21.63 33.4314 21.6143 33.3922 21.6013L32.6133 21.3521C32.595 21.3469 32.5663 21.3403 32.5558 21.3286H32.5336C32.5519 21.309 32.5611 21.2934 32.5741 21.2738C32.7007 21.0937 32.8598 20.8876 32.9916 20.7062C33.0177 20.671 33.0425 20.637 33.0673 20.6031C33.0804 20.5849 33.0921 20.5705 33.1052 20.5522C33.1117 20.5431 33.1182 20.5353 33.1234 20.5261C33.1417 20.5027 33.1378 20.5131 33.1391 20.4948C33.1012 20.427 33.0256 20.2665 32.9864 20.1869L32.5467 19.297C32.5271 19.2579 32.5324 19.2605 32.5271 19.267C32.531 19.3479 32.5271 19.4405 32.5271 19.5227V19.7798C32.5271 19.8816 32.5323 21.2908 32.5245 21.3182L32.5271 21.3208Z" fill="#E21500"/>
<path fill-rule="evenodd" clip-rule="evenodd" d="M32.5291 22.3821C32.5474 22.386 32.6569 22.446 32.6817 22.4604C32.7326 22.4878 32.7835 22.5126 32.8331 22.54C32.8827 22.5674 32.9336 22.5921 32.9845 22.6195L33.7517 23.0214L33.7412 22.9653C33.7412 22.9836 33.7425 22.9705 33.7373 22.9771L32.8344 21.7414C32.7822 21.6736 32.7352 21.6031 32.6843 21.5353L32.5721 21.3826C32.5408 21.3408 32.5487 21.3369 32.5304 21.3421V22.3821H32.5291Z" fill="#FF1E00"/>
<path fill-rule="evenodd" clip-rule="evenodd" d="M33.1411 20.4967C33.1398 20.515 33.1424 20.5032 33.1255 20.528C33.119 20.5359 33.1137 20.545 33.1072 20.5541C33.0942 20.5724 33.0837 20.5867 33.0694 20.605C33.0446 20.6389 33.0185 20.6729 32.9937 20.7081C32.8619 20.8882 32.704 21.0956 32.5762 21.2757C32.5631 21.2953 32.5527 21.3109 32.5357 21.3292H32.5579C32.5866 21.3292 32.7575 21.2679 32.7993 21.2535L34.3755 20.7368C34.4133 20.7251 34.4616 20.7055 34.4994 20.6977C34.4812 20.6872 33.496 20.5437 33.3108 20.5176C33.2834 20.5137 33.1555 20.4863 33.1411 20.498V20.4967Z" fill="#E21500"/>
<path fill-rule="evenodd" clip-rule="evenodd" d="M31.5335 21.6636L31.3091 22.9984L31.4617 22.791C31.4865 22.757 31.5126 22.7218 31.5374 22.6866L31.6901 22.4791C31.8871 22.2012 32.1024 21.9207 32.3007 21.6428L32.5095 21.3557C32.5213 21.34 32.5226 21.3413 32.5304 21.3257C32.4469 21.3479 32.3568 21.3805 32.2759 21.4066C32.1911 21.434 32.1076 21.4614 32.0228 21.4875L31.5505 21.6388C31.5296 21.648 31.544 21.6441 31.5361 21.6623L31.5335 21.6636Z" fill="#FF1E00"/>
<path fill-rule="evenodd" clip-rule="evenodd" d="M30.5525 20.6991L30.7378 20.8778C30.7587 20.8974 30.7769 20.9183 30.7978 20.9392C30.8813 21.0187 30.9635 21.0996 31.047 21.1792C31.0575 21.1897 31.064 21.2001 31.0757 21.2092C31.0875 21.221 31.0966 21.2288 31.1084 21.2393L31.415 21.5381C31.428 21.5511 31.5337 21.6437 31.5337 21.6633C31.5416 21.645 31.5272 21.649 31.5481 21.6398L32.0204 21.4885C32.1052 21.4624 32.1887 21.435 32.2735 21.4076C32.3557 21.3815 32.4458 21.3489 32.528 21.3267V21.3241C32.4471 21.3032 32.3584 21.2719 32.2788 21.2458C32.1979 21.2184 32.1144 21.1936 32.0335 21.1675C31.706 21.0644 31.3824 20.9561 31.0549 20.8543L30.5786 20.7017C30.5708 20.6978 30.5721 20.7004 30.5682 20.6938L30.5512 20.6991H30.5525Z" fill="#E21500"/>
<path fill-rule="evenodd" clip-rule="evenodd" d="M31.9223 20.4943C31.9328 20.5125 31.9471 20.5308 31.9602 20.5477L32.2237 20.9079C32.2746 20.9783 32.3255 21.0449 32.3751 21.1153C32.4181 21.1767 32.4873 21.2628 32.5251 21.3202C32.5343 21.2928 32.5278 19.8823 32.5278 19.7818V19.5248C32.5278 19.4426 32.5317 19.3499 32.5278 19.269C32.5147 19.2808 32.2537 19.8171 32.2237 19.8797C32.1728 19.9828 32.122 20.0858 32.0724 20.1876C32.0411 20.2503 31.9406 20.4447 31.921 20.4943H31.9223Z" fill="#FF1E00"/>
<path fill-rule="evenodd" clip-rule="evenodd" d="M30.5706 20.6938C30.5745 20.7003 30.5719 20.6977 30.581 20.7016L31.0572 20.8543C31.3847 20.956 31.7096 21.0656 32.0358 21.1674C32.1167 21.1922 32.1989 21.2183 32.2811 21.2457C32.3607 21.2718 32.4482 21.3031 32.5278 21.324V21.3201C32.4899 21.264 32.4208 21.1766 32.3777 21.1152C32.3268 21.0448 32.2772 20.9769 32.2263 20.9078L31.9628 20.5476C31.9497 20.5307 31.9341 20.5124 31.9249 20.4941L30.5719 20.6938H30.5706Z" fill="#FF1E00"/>
<path fill-rule="evenodd" clip-rule="evenodd" d="M32.5567 21.3301C32.5672 21.3405 32.5959 21.3471 32.6141 21.3536L33.3931 21.6028C33.4336 21.6158 33.4766 21.6315 33.5158 21.6419L33.5197 21.6602C33.534 21.6524 33.7467 21.441 33.7663 21.4214L33.9516 21.2427C33.962 21.2322 33.9711 21.2244 33.9816 21.214C33.9933 21.2035 33.9998 21.1931 34.0116 21.1813C34.0951 21.1031 34.176 21.0222 34.2582 20.9439L34.4108 20.7951C34.4383 20.7677 34.4722 20.7247 34.5035 20.7051C34.4996 20.6986 34.5035 20.7025 34.4983 20.6973C34.4604 20.7051 34.4122 20.7247 34.3743 20.7364L32.7981 21.2531C32.7564 21.2675 32.5854 21.3288 32.5567 21.3301Z" fill="#FF1E00"/>
<path fill-rule="evenodd" clip-rule="evenodd" d="M31.3092 23.01C31.3092 23.0309 31.3079 23.0152 31.3144 23.0218C31.3483 22.993 31.8298 22.7569 31.8455 22.7373C31.8246 22.7425 31.7333 22.7921 31.7098 22.8052C31.6641 22.8286 31.621 22.8495 31.5767 22.8743C31.4866 22.9213 31.3979 22.9656 31.3092 23.0113V23.01Z" fill="#FF1E00"/>
</svg>
