<svg width="97" height="71" viewBox="0 0 97 71" fill="none" xmlns="http://www.w3.org/2000/svg">
<path d="M79.1843 5.64032L90.7793 29.8587C91.8164 32.0249 90.6292 34.7509 88.127 35.9489L34.2999 61.7197C32.8372 62.42 31.1719 62.4655 29.8273 61.8425L14.038 54.517C12.2603 53.6924 11.3831 51.8603 11.8555 49.9584L16.0497 33.0655C16.4059 31.6281 17.4872 30.3587 18.9499 29.6584L72.777 3.88761C75.2792 2.68962 78.1472 3.47416 79.1843 5.64032Z" fill="#FF3701"/>
<path d="M15.0866 51.2135C14.7467 50.5036 14.6803 49.6975 14.8954 48.8841L18.9348 33.5655C19.2649 32.313 20.2404 31.1935 21.5428 30.57L71.3911 6.70411C73.6184 5.63774 76.1593 6.29073 77.0545 8.16052L87.4809 29.938C88.3761 31.8078 87.2915 34.1966 85.0642 35.2629L35.2159 59.1288C33.9135 59.7523 32.4291 59.8089 31.2471 59.2819L16.7813 52.8231C16.0127 52.4806 15.4265 51.9234 15.0866 51.2135ZM14.932 51.2875C15.2757 52.0056 15.8793 52.5992 16.694 52.9625L31.1598 59.4214C32.3908 59.9713 33.9254 59.9122 35.2804 59.2635L85.1286 35.3976C87.4457 34.2883 88.5675 31.8105 87.6356 29.8639L77.2092 8.08647C76.2772 6.13989 73.6436 5.46008 71.3266 6.5694L21.4783 30.4352C20.1233 31.0839 19.1151 32.2423 18.7715 33.546L14.7321 48.8646C14.5043 49.7271 14.5882 50.5695 14.932 51.2875Z" fill="#FFF9F4"/>
<path d="M40.9117 37.9917C41.1379 38.4587 41.3059 38.9477 41.4155 39.4586C41.5252 39.9695 41.5543 40.4693 41.5028 40.958C41.4614 41.4419 41.3223 41.879 41.0853 42.2696C40.8435 42.65 40.4891 42.9533 40.0221 43.1796C39.6465 43.3616 39.2748 43.4351 38.9069 43.4003C38.5341 43.3552 38.2231 43.2177 37.9737 42.9875L37.8519 43.0466C37.7718 43.3987 37.6059 43.7548 37.3542 44.1149C37.1127 44.4701 36.7533 44.7633 36.2762 44.9945C35.3727 45.4322 34.5419 45.5026 33.7838 45.2055C33.031 44.8934 32.4406 44.2958 32.0127 43.4126C31.6832 42.7325 31.5402 42.0622 31.5837 41.4019C31.6224 40.7314 31.8394 40.1186 32.2348 39.5635C32.6252 38.9983 33.1859 38.5386 33.9168 38.1845C34.394 37.9533 34.9084 37.7605 35.4603 37.6059C36.0173 37.4363 36.4626 37.3334 36.796 37.2972L38.1562 40.4925C38.1952 40.5989 38.2418 40.708 38.2959 40.8197C38.345 40.9212 38.377 40.9872 38.3918 41.0176C38.5934 41.4338 38.7845 41.6859 38.965 41.774C39.1508 41.8469 39.3147 41.8489 39.4568 41.7801C39.6903 41.667 39.8291 41.4619 39.8732 41.1647C39.9123 40.8575 39.8764 40.4988 39.7655 40.0888C39.6598 39.6637 39.4963 39.2227 39.275 38.7659C38.8618 37.9132 38.3401 37.2761 37.7096 36.8545C37.0743 36.4228 36.3809 36.1947 35.6295 36.1702C34.8883 36.1407 34.137 36.3105 33.3756 36.6794C32.5736 37.0679 31.9296 37.5366 31.4435 38.0855C30.9573 38.6344 30.6168 39.2381 30.422 39.8966C30.2271 40.555 30.1731 41.2455 30.2599 41.9681C30.3569 42.6857 30.5824 43.4099 30.9366 44.1408C31.3792 45.0545 31.9179 45.7523 32.5526 46.2345C33.1926 46.7016 33.9059 46.9451 34.6927 46.965C35.4896 46.98 36.35 46.7637 37.2738 46.3161C37.8626 46.0308 38.4447 45.6673 39.0203 45.2255C39.596 44.7836 40.101 44.3384 40.5354 43.8898L41.2289 45.3211C40.84 45.7602 40.3756 46.1858 39.8357 46.5978C39.2957 47.0098 38.6908 47.3781 38.0208 47.7027C36.762 48.3126 35.5778 48.6106 34.468 48.5968C33.3583 48.5829 32.3632 48.2754 31.4828 47.6741C30.6076 47.0578 29.8847 46.1609 29.3142 44.9833C28.8666 44.0595 28.6033 43.1279 28.5242 42.1886C28.4451 41.2492 28.5471 40.3474 28.8304 39.4832C29.1188 38.6039 29.5853 37.8076 30.2299 37.0942C30.8695 36.3706 31.6868 35.7678 32.6816 35.2858C33.4938 34.8924 34.3014 34.6577 35.1045 34.582C35.9128 34.4912 36.6813 34.5638 37.4099 34.7999C38.1437 35.021 38.81 35.4001 39.4087 35.9373C40.0024 36.4644 40.5035 37.1492 40.9117 37.9917ZM33.7481 42.6094C34.0186 43.1677 34.3296 43.5122 34.6812 43.6427C35.0327 43.7732 35.4013 43.745 35.7871 43.5581C36.2947 43.3122 36.5614 42.9573 36.5874 42.4935C36.6186 42.0146 36.5094 41.4658 36.2598 40.8472L35.5544 39.1584C35.4329 39.1922 35.2986 39.2385 35.1516 39.2972C34.9996 39.3457 34.8374 39.4118 34.6648 39.4954C34.1877 39.7266 33.8536 40.0201 33.6625 40.3759C33.4766 40.7167 33.3988 41.0865 33.4292 41.4854C33.4647 41.8693 33.5711 42.244 33.7481 42.6094ZM51.5282 36.7964L50.2186 37.4309L51.3105 39.6845L49.0721 40.769L47.9802 38.5154L43.3359 40.7655L42.5613 39.1667L43.9263 29.8378L46.0429 28.8123L49.3555 35.6493L50.665 35.0148L51.5282 36.7964ZM46.2244 34.8913C46.1408 34.7187 46.0424 34.5157 45.9293 34.2822C45.8214 34.0337 45.7159 33.7902 45.613 33.5518C45.5051 33.3032 45.4119 33.0851 45.3336 32.8975C45.2503 32.6997 45.1965 32.5628 45.1722 32.4868L45.1113 32.5163C45.1183 32.7636 45.1178 33.0083 45.1097 33.2504C45.1016 33.4924 45.0757 33.7494 45.032 34.0213L44.498 38.0027L47.1171 36.7338L46.2244 34.8913ZM57.875 28.8141C58.1751 29.4333 58.4294 30.0747 58.6381 30.7382C58.8418 31.3916 58.9597 32.0489 58.9918 32.7102C59.0292 33.3564 58.943 33.9935 58.7334 34.6216C58.529 35.2345 58.166 35.8177 57.6445 36.3712C57.1283 36.9096 56.4184 37.3977 55.5149 37.8355C55.3017 37.9388 55.0481 38.0491 54.754 38.1665C54.4649 38.2941 54.214 38.3843 54.0015 38.4371L53.1088 36.5946C53.3315 36.5369 53.5619 36.4691 53.8 36.3914C54.038 36.3136 54.2688 36.2206 54.4921 36.1124C55.1722 35.7829 55.6912 35.4312 56.049 35.0573C56.417 34.6784 56.6541 34.2753 56.7603 33.8478C56.8666 33.4203 56.8747 32.9713 56.7847 32.501C56.7049 32.0258 56.5546 31.5346 56.3339 31.0273L56.2425 31.0716C56.2135 31.3739 56.1443 31.6707 56.0347 31.9619C55.9353 32.2483 55.7603 32.521 55.5099 32.7803C55.2696 33.0346 54.916 33.2748 54.449 33.5011C53.8297 33.8011 53.2278 33.9298 52.6431 33.8872C52.0535 33.8344 51.5088 33.6158 51.0091 33.2311C50.5045 32.8364 50.0751 32.2735 49.721 31.5426C49.3373 30.7508 49.1575 30.0044 49.1813 29.3035C49.2105 28.5874 49.4329 27.947 49.8486 27.3821C50.2593 26.807 50.8403 26.3375 51.5915 25.9735C52.1499 25.703 52.7143 25.5486 53.2849 25.5103C53.8656 25.4671 54.4295 25.5574 54.9767 25.7812C55.529 25.9899 56.0518 26.3445 56.545 26.8451C57.0382 27.3456 57.4816 28.002 57.875 28.8141ZM52.5299 27.7939C52.0833 28.0103 51.7916 28.3396 51.6549 28.7819C51.5182 29.2242 51.6097 29.7752 51.9294 30.435C52.1852 30.9629 52.5086 31.3201 52.8998 31.5066C53.291 31.6931 53.7353 31.6659 54.2327 31.4249C54.5779 31.2576 54.8354 31.0389 55.0052 30.7686C55.1853 30.4933 55.2922 30.2096 55.3261 29.9174C55.3551 29.6151 55.3106 29.3421 55.1926 29.0985C55.0696 28.8447 54.9136 28.6132 54.7245 28.404C54.5305 28.1846 54.3132 28.0078 54.0727 27.8737C53.8424 27.7346 53.5962 27.6533 53.3341 27.6299C53.0721 27.6064 52.804 27.6611 52.5299 27.7939ZM66.4368 24.6659C66.7368 25.2852 66.9911 25.9265 67.1998 26.59C67.4035 27.2434 67.5215 27.9007 67.5536 28.562C67.5909 29.2082 67.5048 29.8454 67.2951 30.4734C67.0907 31.0863 66.7278 31.6696 66.2063 32.223C65.69 32.7615 64.9801 33.2496 64.0766 33.6873C63.8635 33.7906 63.6098 33.9009 63.3158 34.0183C63.0266 34.1459 62.7757 34.2361 62.5632 34.289L61.6705 32.4465C61.8932 32.3887 62.1236 32.3209 62.3617 32.2432C62.5998 32.1654 62.8305 32.0725 63.0538 31.9643C63.734 31.6347 64.2529 31.283 64.6108 30.9091C64.9787 30.5303 65.2158 30.1271 65.3221 29.6996C65.4283 29.2721 65.4364 28.8232 65.3464 28.3529C65.2666 27.8776 65.1163 27.3864 64.8956 26.8791L64.8043 26.9234C64.7753 27.2257 64.706 27.5225 64.5964 27.8138C64.497 28.1001 64.322 28.3729 64.0716 28.6321C63.8313 28.8864 63.4777 29.1267 63.0107 29.3529C62.3915 29.6529 61.7895 29.7816 61.2048 29.739C60.6152 29.6863 60.0705 29.4676 59.5708 29.083C59.0662 28.6882 58.6368 28.1254 58.2827 27.3945C57.8991 26.6026 57.7192 25.8563 57.7431 25.1553C57.7722 24.4393 57.9946 23.7988 58.4103 23.2339C58.8211 22.6588 59.4021 22.1893 60.1533 21.8254C60.7116 21.5548 61.2761 21.4004 61.8466 21.3622C62.4273 21.319 62.9913 21.4092 63.5384 21.633C64.0907 21.8417 64.6135 22.1963 65.1067 22.6969C65.5999 23.1975 66.0433 23.8538 66.4368 24.6659ZM61.0916 23.6457C60.645 23.8621 60.3533 24.1915 60.2166 24.6337C60.0799 25.076 60.1714 25.627 60.4911 26.2869C60.7469 26.8147 61.0704 27.1719 61.4615 27.3584C61.8527 27.5449 62.297 27.5177 62.7945 27.2767C63.1396 27.1095 63.3971 26.8907 63.567 26.6204C63.747 26.3452 63.8539 26.0614 63.8879 25.7693C63.9169 25.4669 63.8723 25.1939 63.7543 24.9503C63.6313 24.6965 63.4753 24.465 63.2862 24.2558C63.0922 24.0364 62.8749 23.8597 62.6344 23.7255C62.4041 23.5864 62.1579 23.5051 61.8959 23.4817C61.6338 23.4582 61.3657 23.5129 61.0916 23.6457ZM70.7992 16.8178L72.0164 29.6524L69.9607 30.6484L68.7436 17.8138L70.7992 16.8178ZM74.9217 24.3529L74.0216 22.4952L78.0111 20.5622L78.9112 22.42L74.9217 24.3529Z" fill="#FFF8F2"/>
<circle cx="23.7051" cy="47.5124" r="2.45845" transform="rotate(-10.5837 23.7051 47.5124)" fill="#FFF8F2"/>
<path d="M1.64388 39.3412C1.64388 40.814 2.83779 42.0079 4.31055 42.0079C5.78331 42.0079 6.97721 40.814 6.97721 39.3412C6.97721 37.8685 5.78331 36.6746 4.31055 36.6746C2.83779 36.6746 1.64388 37.8685 1.64388 39.3412ZM4.46326 39.8174C6.79192 39.0704 10.5342 38.5961 14.1531 39.5991C17.7446 40.5945 21.2326 43.0466 23.1283 48.2068L24.067 47.8619C22.0506 42.3733 18.2945 39.7092 14.4202 38.6354C10.5734 37.5692 6.62815 38.0728 4.15783 38.8651L4.46326 39.8174Z" fill="white"/>
</svg>
