<svg width="19" height="9" viewBox="0 0 19 9" fill="none" xmlns="http://www.w3.org/2000/svg">
<path d="M0.753418 3.94043C0.477276 3.94043 0.253418 4.16429 0.253418 4.44043C0.253418 4.71657 0.477276 4.94043 0.753418 4.94043V3.94043ZM18.107 4.79398C18.3022 4.59872 18.3022 4.28214 18.107 4.08688L14.925 0.904896C14.7297 0.709634 14.4131 0.709634 14.2179 0.904896C14.0226 1.10016 14.0226 1.41674 14.2179 1.612L17.0463 4.44043L14.2179 7.26886C14.0226 7.46412 14.0226 7.7807 14.2179 7.97596C14.4131 8.17123 14.7297 8.17123 14.925 7.97596L18.107 4.79398ZM0.753418 4.94043H17.7534V3.94043H0.753418V4.94043Z" fill="white"/>
</svg>
