<svg width="162" height="27" viewBox="0 0 162 27" fill="none" xmlns="http://www.w3.org/2000/svg">
<path d="M13 0.967773L16.7595 8.7933L25.3637 9.95055L19.083 15.9442L20.6412 24.485L13 20.3638L5.35879 24.485L6.91704 15.9442L0.636266 9.95055L9.24053 8.7933L13 0.967773Z" fill="#B88EC7"/>
<path d="M47 0.967773L50.7595 8.7933L59.3637 9.95055L53.083 15.9442L54.6412 24.485L47 20.3638L39.3588 24.485L40.917 15.9442L34.6363 9.95055L43.2405 8.7933L47 0.967773Z" fill="#B88EC7"/>
<path d="M81 0.967773L84.7595 8.7933L93.3637 9.95055L87.083 15.9442L88.6412 24.485L81 20.3638L73.3588 24.485L74.917 15.9442L68.6363 9.95055L77.2405 8.7933L81 0.967773Z" fill="#B88EC7"/>
<path d="M115 0.967773L118.759 8.7933L127.364 9.95055L121.083 15.9442L122.641 24.485L115 20.3638L107.359 24.485L108.917 15.9442L102.636 9.95055L111.241 8.7933L115 0.967773Z" fill="#B88EC7"/>
<path d="M149 0.967773L152.759 8.7933L161.364 9.95055L155.083 15.9442L156.641 24.485L149 20.3638L141.359 24.485L142.917 15.9442L136.636 9.95055L145.241 8.7933L149 0.967773Z" fill="#B88EC7"/>
<path d="M13 0.967773L16.7595 8.7933L25.3637 9.95055L19.083 15.9442L20.6412 24.485L13 20.3638L5.35879 24.485L6.91704 15.9442L0.636266 9.95055L9.24053 8.7933L13 0.967773Z" fill="#FFFA65"/>
<path d="M47 0.967773L50.7595 8.7933L59.3637 9.95055L53.083 15.9442L54.6412 24.485L47 20.3638L39.3588 24.485L40.917 15.9442L34.6363 9.95055L43.2405 8.7933L47 0.967773Z" fill="#FFFA65"/>
<path d="M81 0.967773L84.7595 8.7933L93.3637 9.95055L87.083 15.9442L88.6412 24.485L81 20.3638L73.3588 24.485L74.917 15.9442L68.6363 9.95055L77.2405 8.7933L81 0.967773Z" fill="#FFFA65"/>
<path d="M115 0.967773L118.759 8.7933L127.364 9.95055L121.083 15.9442L122.641 24.485L115 20.3638L107.359 24.485L108.917 15.9442L102.636 9.95055L111.241 8.7933L115 0.967773Z" fill="#FFFA65"/>
</svg>
