<svg width="36" height="35" viewBox="0 0 36 35" fill="none" xmlns="http://www.w3.org/2000/svg">
<path d="M35.0692 2.10817C34.4229 0.983081 33.2643 0.311218 31.9668 0.311218H27.1712C25.9775 0.311218 24.8668 0.903287 24.2013 1.89432L21.683 5.64622C21.9033 5.7308 22.0836 5.86326 22.2224 6.02923C22.2416 6.04679 22.2623 6.06275 22.2799 6.0819L24.8141 2.30606C25.3424 1.51929 26.2233 1.05011 27.1712 1.05011H31.9668C32.9962 1.05011 33.917 1.58313 34.4293 2.47522C34.9415 3.36732 34.9383 4.43176 34.4181 5.32066L21.241 27.8815L9.57354 8.11344C9.82888 7.85172 9.98527 7.49584 9.98527 7.10166C9.98527 6.30053 9.33576 5.65101 8.53463 5.65101C7.7335 5.65101 7.08398 6.30053 7.08398 7.10166C7.08398 7.90279 7.7335 8.55231 8.53463 8.55231C8.67506 8.55231 8.81072 8.53156 8.93999 8.49326L21.2442 29.3401L35.0549 5.6925C35.7092 4.5722 35.7139 3.23167 35.0676 2.10658L35.0692 2.10817Z" fill="#FF1E00"/>
<path d="M3.19496 5.55364C2.74173 4.77326 3.04175 4.08224 3.19176 3.82212C3.34177 3.56199 3.78862 2.95556 4.69189 2.95556H9.6726C10.2918 2.95556 10.8679 3.29069 11.1759 3.8285L21.1677 21.3336L28.7752 7.94266C29.3353 6.95801 28.6236 5.73557 27.4905 5.73557C26.9591 5.73557 26.4676 6.02123 26.2058 6.48403L21.1629 15.3619L13.7437 2.36349C12.9122 0.906456 11.3531 0 9.6742 0H4.74135C3.06728 0 1.50013 0.869751 0.652722 2.31402C-0.213837 3.7902 -0.217021 5.56002 0.639962 7.0378L16.254 33.9506C16.8301 34.9448 18.2712 34.9289 18.8265 33.9219C19.0771 33.4671 19.0707 32.9165 18.8106 32.4664L3.19655 5.55364H3.19496Z" fill="#FF1E00"/>
<path fill-rule="evenodd" clip-rule="evenodd" d="M21.5043 6.50797V6.51276L21.5075 6.51595C21.4979 6.5351 21.4963 6.53351 21.482 6.55266L21.2266 6.90375C20.984 7.24367 20.7223 7.58678 20.4797 7.9267L20.293 8.18045C20.2627 8.22354 20.2292 8.26503 20.2005 8.30812L20.0138 8.56186L20.001 8.57942L20.0138 8.57463C20.1207 8.51877 20.2308 8.46451 20.3409 8.40706C20.3968 8.37833 20.4478 8.3528 20.5037 8.32248C20.5324 8.30652 20.6457 8.24588 20.6697 8.23949L21.399 7.86127C21.4261 7.84691 21.4851 7.82137 21.5059 7.80542V6.53351C21.5298 6.52712 21.5202 6.53351 21.5586 6.58298L21.6958 6.7697C21.7596 6.85108 21.8171 6.93886 21.8793 7.02184L22.9837 8.53313C22.9837 8.53313 22.9869 8.54111 22.9884 8.51877L22.7172 6.9213L22.7124 6.89896C22.6629 6.88619 22.6102 6.86704 22.5624 6.85108L21.6096 6.54627C21.5873 6.53989 21.5522 6.53191 21.5394 6.51755H21.5123C21.5346 6.49361 21.5458 6.47446 21.5617 6.45052C21.7165 6.23029 21.9112 5.97814 22.0724 5.75632C22.1043 5.71323 22.1347 5.67173 22.165 5.63024C22.1809 5.6079 22.1953 5.59035 22.2113 5.568C22.2192 5.55683 22.2272 5.54726 22.2336 5.53608C22.2559 5.50736 22.2512 5.52013 22.2528 5.49778C22.2065 5.4148 22.1139 5.21851 22.066 5.12116L21.5282 4.03277C21.5043 3.9849 21.5107 3.98809 21.5043 3.99607C21.5091 4.09501 21.5043 4.20832 21.5043 4.30886V4.62325C21.5043 4.74772 21.5107 6.47127 21.5011 6.50478L21.5043 6.50797Z" fill="#E21500"/>
<path fill-rule="evenodd" clip-rule="evenodd" d="M21.5068 7.80703C21.5292 7.81182 21.6632 7.88523 21.6935 7.90278C21.7558 7.93629 21.818 7.96662 21.8787 8.00013C21.9393 8.03364 22.0016 8.06396 22.0638 8.09748L23.0022 8.58901L22.9894 8.52038C22.9894 8.54273 22.991 8.52677 22.9846 8.53475L21.8803 7.02346C21.8164 6.94047 21.759 6.85429 21.6967 6.77131L21.5595 6.58459C21.5212 6.53352 21.5308 6.52873 21.5084 6.53512V7.80703H21.5068Z" fill="#FF1E00"/>
<path fill-rule="evenodd" clip-rule="evenodd" d="M22.2561 5.50098C22.2545 5.52332 22.2577 5.50896 22.237 5.53928C22.229 5.54886 22.2226 5.56003 22.2146 5.5712C22.1987 5.59354 22.1859 5.6111 22.1684 5.63344C22.138 5.67493 22.1061 5.71642 22.0758 5.75951C21.9146 5.97974 21.7215 6.23349 21.5651 6.45372C21.5491 6.47765 21.5364 6.49681 21.5156 6.51915H21.5428C21.5779 6.51915 21.7869 6.44414 21.838 6.42659L23.7658 5.79462C23.8121 5.78026 23.8711 5.75632 23.9174 5.74675C23.8951 5.73398 22.6902 5.55843 22.4636 5.52651C22.4301 5.52173 22.2737 5.48821 22.2561 5.50258V5.50098Z" fill="#E21500"/>
<path fill-rule="evenodd" clip-rule="evenodd" d="M20.2892 6.92767L20.0146 8.56025L20.2014 8.30651C20.2317 8.26502 20.2636 8.22193 20.2939 8.17884L20.4807 7.92509C20.7216 7.58517 20.985 7.24206 21.2275 6.90214L21.4829 6.55105C21.4972 6.5319 21.4988 6.53349 21.5084 6.51434C21.4063 6.54147 21.2961 6.58137 21.1972 6.61329C21.0935 6.6468 20.9913 6.68031 20.8876 6.71223L20.3099 6.89735C20.2844 6.90852 20.3019 6.90374 20.2923 6.92608L20.2892 6.92767Z" fill="#FF1E00"/>
<path fill-rule="evenodd" clip-rule="evenodd" d="M19.0895 5.74833L19.3161 5.96696C19.3416 5.9909 19.364 6.01643 19.3895 6.04197C19.4916 6.13932 19.5922 6.23826 19.6943 6.33561C19.7071 6.34838 19.7151 6.36114 19.7294 6.37231C19.7438 6.38668 19.755 6.39625 19.7693 6.40902L20.1444 6.77447C20.1603 6.79043 20.2896 6.90374 20.2896 6.92768C20.2992 6.90533 20.2816 6.91012 20.3071 6.89895L20.8848 6.71383C20.9886 6.68191 21.0907 6.6484 21.1944 6.61489C21.295 6.58297 21.4051 6.54307 21.5056 6.51594V6.51275C21.4067 6.48722 21.2982 6.44892 21.2008 6.417C21.1019 6.38348 20.9997 6.35316 20.9008 6.32125C20.5002 6.19517 20.1045 6.06271 19.7039 5.93824L19.1214 5.75152C19.1118 5.74673 19.1134 5.74992 19.1086 5.74194L19.0879 5.74833H19.0895Z" fill="#E21500"/>
<path fill-rule="evenodd" clip-rule="evenodd" d="M20.7653 5.49779C20.778 5.52013 20.7956 5.54248 20.8116 5.56322L21.1339 6.00368C21.1961 6.08986 21.2584 6.17125 21.319 6.25743C21.3717 6.33243 21.4563 6.43776 21.5026 6.50798C21.5137 6.47447 21.5058 4.74933 21.5058 4.62645V4.31206C21.5058 4.21152 21.5105 4.09821 21.5058 3.99927C21.4898 4.01363 21.1706 4.66953 21.1339 4.74614C21.0717 4.87221 21.0094 4.99828 20.9488 5.12276C20.9105 5.19936 20.7876 5.43715 20.7637 5.49779H20.7653Z" fill="#FF1E00"/>
<path fill-rule="evenodd" clip-rule="evenodd" d="M19.1113 5.74197C19.1161 5.74995 19.1129 5.74676 19.1241 5.75155L19.7066 5.93826C20.1071 6.06274 20.5045 6.1968 20.9035 6.32127C21.0024 6.3516 21.103 6.38351 21.2035 6.41703C21.3009 6.44894 21.4078 6.48724 21.5051 6.51278V6.50799C21.4589 6.43937 21.3743 6.33244 21.3216 6.25744C21.2594 6.17126 21.1987 6.08828 21.1365 6.00369L20.8141 5.56323C20.7982 5.54249 20.779 5.52014 20.7678 5.4978L19.1129 5.74197H19.1113Z" fill="#FF1E00"/>
<path fill-rule="evenodd" clip-rule="evenodd" d="M21.541 6.51912C21.5538 6.53188 21.5889 6.53986 21.6112 6.54784L22.564 6.85265C22.6134 6.86861 22.6661 6.88776 22.714 6.90053L22.7188 6.92287C22.7363 6.9133 22.9965 6.65476 23.0204 6.63083L23.247 6.41219C23.2598 6.39943 23.2709 6.38985 23.2837 6.37708C23.2981 6.36432 23.3061 6.35155 23.3204 6.33719C23.4226 6.24143 23.5215 6.14249 23.622 6.04674L23.8087 5.86481C23.8423 5.83129 23.8838 5.77863 23.9221 5.75469C23.9173 5.74671 23.9221 5.7515 23.9157 5.74512C23.8694 5.75469 23.8104 5.77863 23.7641 5.79299L21.8362 6.42496C21.7852 6.44251 21.5761 6.51752 21.541 6.51912Z" fill="#FF1E00"/>
<path fill-rule="evenodd" clip-rule="evenodd" d="M20.0148 8.57463C20.0148 8.60016 20.0132 8.58101 20.0212 8.58899C20.0627 8.55388 20.6515 8.26503 20.6707 8.24109C20.6452 8.24747 20.5334 8.30811 20.5047 8.32407C20.4489 8.3528 20.3962 8.37833 20.3419 8.40865C20.2318 8.46611 20.1233 8.52037 20.0148 8.57622V8.57463Z" fill="#FF1E00"/>
</svg>
