<svg width="308" height="35" viewBox="0 0 308 35" fill="none" xmlns="http://www.w3.org/2000/svg">
<path d="M35.0692 2.10817C34.4229 0.983081 33.2643 0.311218 31.9668 0.311218H27.1712C25.9775 0.311218 24.8668 0.903287 24.2013 1.89432L21.683 5.64622C21.9033 5.7308 22.0836 5.86326 22.2224 6.02923C22.2416 6.04679 22.2623 6.06275 22.2799 6.0819L24.8141 2.30606C25.3424 1.51929 26.2233 1.05011 27.1712 1.05011H31.9668C32.9962 1.05011 33.917 1.58313 34.4293 2.47522C34.9415 3.36732 34.9383 4.43176 34.4181 5.32066L21.241 27.8815L9.57354 8.11344C9.82888 7.85172 9.98527 7.49584 9.98527 7.10166C9.98527 6.30053 9.33576 5.65101 8.53463 5.65101C7.7335 5.65101 7.08398 6.30053 7.08398 7.10166C7.08398 7.90279 7.7335 8.55231 8.53463 8.55231C8.67506 8.55231 8.81072 8.53156 8.93999 8.49326L21.2442 29.3401L35.0549 5.6925C35.7092 4.5722 35.7139 3.23167 35.0676 2.10658L35.0692 2.10817Z" fill="#FF1E00"/>
<path d="M3.19496 5.55364C2.74173 4.77326 3.04175 4.08224 3.19176 3.82212C3.34177 3.56199 3.78862 2.95556 4.69189 2.95556H9.6726C10.2918 2.95556 10.8679 3.29069 11.1759 3.8285L21.1677 21.3336L28.7752 7.94266C29.3353 6.95801 28.6236 5.73557 27.4905 5.73557C26.9591 5.73557 26.4676 6.02123 26.2058 6.48403L21.1629 15.3619L13.7437 2.36349C12.9122 0.906456 11.3531 0 9.6742 0H4.74135C3.06728 0 1.50013 0.869751 0.652722 2.31402C-0.213837 3.7902 -0.217021 5.56002 0.639962 7.0378L16.254 33.9506C16.8301 34.9448 18.2712 34.9289 18.8265 33.9219C19.0771 33.4671 19.0707 32.9165 18.8106 32.4664L3.19655 5.55364H3.19496Z" fill="#FF1E00"/>
<path fill-rule="evenodd" clip-rule="evenodd" d="M21.5043 6.50797V6.51276L21.5075 6.51595C21.4979 6.5351 21.4963 6.53351 21.482 6.55266L21.2266 6.90375C20.984 7.24367 20.7223 7.58678 20.4797 7.9267L20.293 8.18045C20.2627 8.22354 20.2292 8.26503 20.2005 8.30812L20.0138 8.56186L20.001 8.57942L20.0138 8.57463C20.1207 8.51877 20.2308 8.46451 20.3409 8.40706C20.3968 8.37833 20.4478 8.3528 20.5037 8.32248C20.5324 8.30652 20.6457 8.24588 20.6697 8.23949L21.399 7.86127C21.4261 7.84691 21.4851 7.82137 21.5059 7.80542V6.53351C21.5298 6.52712 21.5202 6.53351 21.5586 6.58298L21.6958 6.7697C21.7596 6.85108 21.8171 6.93886 21.8793 7.02184L22.9837 8.53313C22.9837 8.53313 22.9869 8.54111 22.9884 8.51877L22.7172 6.9213L22.7124 6.89896C22.6629 6.88619 22.6102 6.86704 22.5624 6.85108L21.6096 6.54627C21.5873 6.53989 21.5522 6.53191 21.5394 6.51755H21.5123C21.5346 6.49361 21.5458 6.47446 21.5617 6.45052C21.7165 6.23029 21.9112 5.97814 22.0724 5.75632C22.1043 5.71323 22.1347 5.67173 22.165 5.63024C22.1809 5.6079 22.1953 5.59035 22.2113 5.568C22.2192 5.55683 22.2272 5.54726 22.2336 5.53608C22.2559 5.50736 22.2512 5.52013 22.2528 5.49778C22.2065 5.4148 22.1139 5.21851 22.066 5.12116L21.5282 4.03277C21.5043 3.9849 21.5107 3.98809 21.5043 3.99607C21.5091 4.09501 21.5043 4.20832 21.5043 4.30886V4.62325C21.5043 4.74772 21.5107 6.47127 21.5011 6.50478L21.5043 6.50797Z" fill="#E21500"/>
<path fill-rule="evenodd" clip-rule="evenodd" d="M21.5068 7.80703C21.5292 7.81182 21.6632 7.88523 21.6935 7.90278C21.7558 7.93629 21.818 7.96662 21.8787 8.00013C21.9393 8.03364 22.0016 8.06396 22.0638 8.09748L23.0022 8.58901L22.9894 8.52038C22.9894 8.54273 22.991 8.52677 22.9846 8.53475L21.8803 7.02346C21.8164 6.94047 21.759 6.85429 21.6967 6.77131L21.5595 6.58459C21.5212 6.53352 21.5308 6.52873 21.5084 6.53512V7.80703H21.5068Z" fill="#FF1E00"/>
<path fill-rule="evenodd" clip-rule="evenodd" d="M22.2561 5.50098C22.2545 5.52332 22.2577 5.50896 22.237 5.53928C22.229 5.54886 22.2226 5.56003 22.2146 5.5712C22.1987 5.59354 22.1859 5.6111 22.1684 5.63344C22.138 5.67493 22.1061 5.71642 22.0758 5.75951C21.9146 5.97974 21.7215 6.23349 21.5651 6.45372C21.5491 6.47765 21.5364 6.49681 21.5156 6.51915H21.5428C21.5779 6.51915 21.7869 6.44414 21.838 6.42659L23.7658 5.79462C23.8121 5.78026 23.8711 5.75632 23.9174 5.74675C23.8951 5.73398 22.6902 5.55843 22.4636 5.52651C22.4301 5.52173 22.2737 5.48821 22.2561 5.50258V5.50098Z" fill="#E21500"/>
<path fill-rule="evenodd" clip-rule="evenodd" d="M20.2892 6.92767L20.0146 8.56025L20.2014 8.30651C20.2317 8.26502 20.2636 8.22193 20.2939 8.17884L20.4807 7.92509C20.7216 7.58517 20.985 7.24206 21.2275 6.90214L21.4829 6.55105C21.4972 6.5319 21.4988 6.53349 21.5084 6.51434C21.4063 6.54147 21.2961 6.58137 21.1972 6.61329C21.0935 6.6468 20.9913 6.68031 20.8876 6.71223L20.3099 6.89735C20.2844 6.90852 20.3019 6.90374 20.2923 6.92608L20.2892 6.92767Z" fill="#FF1E00"/>
<path fill-rule="evenodd" clip-rule="evenodd" d="M19.0895 5.74833L19.3161 5.96696C19.3416 5.9909 19.364 6.01643 19.3895 6.04197C19.4916 6.13932 19.5922 6.23826 19.6943 6.33561C19.7071 6.34838 19.7151 6.36114 19.7294 6.37231C19.7438 6.38668 19.755 6.39625 19.7693 6.40902L20.1444 6.77447C20.1603 6.79043 20.2896 6.90374 20.2896 6.92768C20.2992 6.90533 20.2816 6.91012 20.3071 6.89895L20.8848 6.71383C20.9886 6.68191 21.0907 6.6484 21.1944 6.61489C21.295 6.58297 21.4051 6.54307 21.5056 6.51594V6.51275C21.4067 6.48722 21.2982 6.44892 21.2008 6.417C21.1019 6.38348 20.9997 6.35316 20.9008 6.32125C20.5002 6.19517 20.1045 6.06271 19.7039 5.93824L19.1214 5.75152C19.1118 5.74673 19.1134 5.74992 19.1086 5.74194L19.0879 5.74833H19.0895Z" fill="#E21500"/>
<path fill-rule="evenodd" clip-rule="evenodd" d="M20.7653 5.49779C20.778 5.52013 20.7956 5.54248 20.8116 5.56322L21.1339 6.00368C21.1961 6.08986 21.2584 6.17125 21.319 6.25743C21.3717 6.33243 21.4563 6.43776 21.5026 6.50798C21.5137 6.47447 21.5058 4.74933 21.5058 4.62645V4.31206C21.5058 4.21152 21.5105 4.09821 21.5058 3.99927C21.4898 4.01363 21.1706 4.66953 21.1339 4.74614C21.0717 4.87221 21.0094 4.99828 20.9488 5.12276C20.9105 5.19936 20.7876 5.43715 20.7637 5.49779H20.7653Z" fill="#FF1E00"/>
<path fill-rule="evenodd" clip-rule="evenodd" d="M19.1113 5.74197C19.1161 5.74995 19.1129 5.74676 19.1241 5.75155L19.7066 5.93826C20.1071 6.06274 20.5045 6.1968 20.9035 6.32127C21.0024 6.3516 21.103 6.38351 21.2035 6.41703C21.3009 6.44894 21.4078 6.48724 21.5051 6.51278V6.50799C21.4589 6.43937 21.3743 6.33244 21.3216 6.25744C21.2594 6.17126 21.1987 6.08828 21.1365 6.00369L20.8141 5.56323C20.7982 5.54249 20.779 5.52014 20.7678 5.4978L19.1129 5.74197H19.1113Z" fill="#FF1E00"/>
<path fill-rule="evenodd" clip-rule="evenodd" d="M21.541 6.51912C21.5538 6.53188 21.5889 6.53986 21.6112 6.54784L22.564 6.85265C22.6134 6.86861 22.6661 6.88776 22.714 6.90053L22.7188 6.92287C22.7363 6.9133 22.9965 6.65476 23.0204 6.63083L23.247 6.41219C23.2598 6.39943 23.2709 6.38985 23.2837 6.37708C23.2981 6.36432 23.3061 6.35155 23.3204 6.33719C23.4226 6.24143 23.5215 6.14249 23.622 6.04674L23.8087 5.86481C23.8423 5.83129 23.8838 5.77863 23.9221 5.75469C23.9173 5.74671 23.9221 5.7515 23.9157 5.74512C23.8694 5.75469 23.8104 5.77863 23.7641 5.79299L21.8362 6.42496C21.7852 6.44251 21.5761 6.51752 21.541 6.51912Z" fill="#FF1E00"/>
<path fill-rule="evenodd" clip-rule="evenodd" d="M20.0148 8.57463C20.0148 8.60016 20.0132 8.58101 20.0212 8.58899C20.0627 8.55388 20.6515 8.26503 20.6707 8.24109C20.6452 8.24747 20.5334 8.30811 20.5047 8.32407C20.4489 8.3528 20.3962 8.37833 20.3419 8.40865C20.2318 8.46611 20.1233 8.52037 20.0148 8.57622V8.57463Z" fill="#FF1E00"/>
<path d="M54.0673 14.4409V27.7586C54.0673 28.1594 54.0145 28.4126 53.9143 28.5128C53.8141 28.613 53.5609 28.6658 53.1601 28.6658H50.2329C49.832 28.6658 49.5788 28.613 49.4786 28.5128C49.3784 28.4126 49.3257 28.1594 49.3257 27.7586V14.4409H46.372C45.9712 14.4409 45.718 14.3882 45.6178 14.2879C45.5176 14.1877 45.4648 13.9346 45.4648 13.5337V11.3449C45.4648 10.944 45.5176 10.6909 45.6178 10.5906C45.718 10.4904 45.9712 10.4377 46.372 10.4377H57.0842C57.4851 10.4377 57.7383 10.4904 57.8385 10.5906C57.9387 10.6909 57.9914 10.944 57.9914 11.3449V13.5337C57.9914 13.9346 57.9387 14.1877 57.8385 14.2879C57.7383 14.3882 57.4851 14.4409 57.0842 14.4409H54.0673Z" fill="#303244"/>
<path d="M64.8168 17.4737H71.6576V11.3397C71.6576 10.9388 71.7104 10.6857 71.8106 10.5854C71.9108 10.4852 72.1639 10.4325 72.5648 10.4325H75.4921C75.8929 10.4325 76.146 10.4852 76.2463 10.5854C76.3465 10.6857 76.3992 10.9388 76.3992 11.3397V27.7587C76.3992 28.1595 76.3465 28.4127 76.2463 28.5129C76.146 28.6131 75.8929 28.6659 75.4921 28.6659H72.5648C72.1639 28.6659 71.9108 28.6131 71.8106 28.5129C71.7104 28.4127 71.6576 28.1595 71.6576 27.7587V21.1605H64.8168V27.7587C64.8168 28.1595 64.7641 28.4127 64.6638 28.5129C64.5636 28.6131 64.3104 28.6659 63.9096 28.6659H60.9824C60.5815 28.6659 60.3283 28.6131 60.2281 28.5129C60.1279 28.4127 60.0752 28.1595 60.0752 27.7587V11.3397C60.0752 10.9388 60.1279 10.6857 60.2281 10.5854C60.3283 10.4852 60.5815 10.4325 60.9824 10.4325H63.9096C64.3104 10.4325 64.5636 10.4852 64.6638 10.5854C64.7641 10.6857 64.8168 10.9388 64.8168 11.3397V17.4737Z" fill="#303244"/>
<path d="M84.975 14.441V17.4843H89.3949C89.7958 17.4843 90.0489 17.537 90.1491 17.6372C90.2493 17.7374 90.3021 17.9906 90.3021 18.3915V20.5803C90.3021 20.9811 90.2493 21.2343 90.1491 21.3345C90.0489 21.4347 89.7958 21.4875 89.3949 21.4875H84.975V24.6521H89.7061C90.1069 24.6521 90.3601 24.7048 90.4603 24.805C90.5605 24.9053 90.6132 25.1584 90.6132 25.5593V27.7481C90.6132 28.149 90.5605 28.4021 90.4603 28.5023C90.3601 28.6026 90.1069 28.6553 89.7061 28.6553H81.1406C80.7397 28.6553 80.4866 28.6026 80.3864 28.5023C80.2862 28.4021 80.2334 28.149 80.2334 27.7481V11.3291C80.2334 10.9283 80.2862 10.6751 80.3864 10.5749C80.4866 10.4747 80.7397 10.4219 81.1406 10.4219H89.7061C90.1069 10.4219 90.3601 10.4747 90.4603 10.5749C90.5605 10.6751 90.6132 10.9283 90.6132 11.3291V13.518C90.6132 13.9188 90.5605 14.172 90.4603 14.2722C90.3601 14.3724 90.1069 14.4252 89.7061 14.4252H84.975V14.441Z" fill="#303244"/>
<path d="M108.113 21.5191L112.253 11.1129C112.29 11.0338 112.322 10.9599 112.348 10.8861C112.427 10.6804 112.517 10.5538 112.617 10.5063C112.717 10.4589 112.934 10.4325 113.271 10.4325H116.478C116.789 10.4325 117 10.4536 117.106 10.5011C117.29 10.5802 117.385 10.7279 117.385 10.9441C117.385 11.0601 117.327 11.2553 117.211 11.5296L110.186 28.0013C110.043 28.3283 109.927 28.5235 109.843 28.5815C109.758 28.6395 109.532 28.6659 109.168 28.6659H106.953C106.594 28.6659 106.372 28.6395 106.283 28.5815C106.193 28.5235 106.077 28.3283 105.935 28.0013L99.0147 11.5296C98.8881 11.2447 98.8301 11.0496 98.8301 10.9441C98.8301 10.7595 98.8986 10.6276 99.0305 10.5485C99.1624 10.4747 99.3997 10.4325 99.7372 10.4325H102.97C103.334 10.4325 103.561 10.4589 103.651 10.5169C103.74 10.5749 103.851 10.7753 103.983 11.1129L108.113 21.5191Z" fill="#303244"/>
<path d="M124.331 11.3397V27.7587C124.331 28.1595 124.279 28.4127 124.178 28.5129C124.078 28.6131 123.825 28.6659 123.424 28.6659H120.497C120.096 28.6659 119.843 28.6131 119.743 28.5129C119.643 28.4127 119.59 28.1595 119.59 27.7587V11.3397C119.59 10.9388 119.643 10.6857 119.743 10.5854C119.843 10.4852 120.096 10.4325 120.497 10.4325H123.424C123.825 10.4325 124.078 10.4852 124.178 10.5854C124.279 10.6857 124.331 10.9388 124.331 11.3397Z" fill="#303244"/>
<path d="M138.345 18.9294C139.522 19.1721 140.366 19.5518 140.882 20.0792C141.668 20.8809 142.059 22.0202 142.059 23.497C142.059 24.9738 141.563 26.1658 140.577 27.0888C139.464 28.1384 137.86 28.6659 135.766 28.6659H129.073C128.672 28.6659 128.419 28.6131 128.319 28.5129C128.219 28.4127 128.166 28.1595 128.166 27.7587V11.3397C128.166 10.9388 128.219 10.6857 128.319 10.5854C128.419 10.4852 128.672 10.4325 129.073 10.4325H135.218C136.916 10.4325 138.198 10.8544 139.052 11.7036C139.917 12.5475 140.35 13.7131 140.35 15.1899C140.35 16.1077 140.191 16.8566 139.88 17.4421C139.569 18.0275 139.057 18.5233 138.345 18.9294ZM132.908 17.6056H133.778C134.532 17.6056 135.096 17.4421 135.46 17.1098C135.824 16.7828 136.009 16.3556 136.009 15.8281C136.009 15.248 135.819 14.8102 135.434 14.5043C135.049 14.2036 134.5 14.0507 133.778 14.0507H132.908V17.6056ZM132.908 24.9791H133.963C135.012 24.9791 135.793 24.8683 136.299 24.6468C136.594 24.515 136.826 24.304 137.001 24.0139C137.175 23.7238 137.259 23.4021 137.259 23.0434C137.259 22.305 136.958 21.7776 136.352 21.4664C136.083 21.324 135.798 21.2343 135.492 21.1921C135.186 21.1499 134.648 21.1341 133.883 21.1341H132.908V24.9791Z" fill="#303244"/>
<path d="M149.818 14.441V17.4843H154.238C154.639 17.4843 154.892 17.537 154.992 17.6372C155.092 17.7374 155.145 17.9906 155.145 18.3915V20.5803C155.145 20.9811 155.092 21.2343 154.992 21.3345C154.892 21.4347 154.639 21.4875 154.238 21.4875H149.818V24.6521H154.549C154.95 24.6521 155.203 24.7048 155.303 24.805C155.403 24.9053 155.456 25.1584 155.456 25.5593V27.7481C155.456 28.149 155.403 28.4021 155.303 28.5023C155.203 28.6026 154.95 28.6553 154.549 28.6553H145.983C145.583 28.6553 145.329 28.6026 145.229 28.5023C145.129 28.4021 145.076 28.149 145.076 27.7481V11.3291C145.076 10.9283 145.129 10.6751 145.229 10.5749C145.329 10.4747 145.583 10.4219 145.983 10.4219H154.549C154.95 10.4219 155.203 10.4747 155.303 10.5749C155.403 10.6751 155.456 10.9283 155.456 11.3291V13.518C155.456 13.9188 155.403 14.172 155.303 14.2722C155.203 14.3724 154.95 14.4252 154.549 14.4252H149.818V14.441Z" fill="#303244"/>
<path d="M169.95 12.2891L168.921 14.2933C168.789 14.5623 168.678 14.7311 168.599 14.8102C168.52 14.8893 168.409 14.921 168.267 14.921C168.188 14.921 167.703 14.6783 166.811 14.1878C166.49 14.019 166.015 13.9347 165.382 13.9347C164.712 13.9347 164.195 14.1193 163.821 14.4832C163.51 14.7944 163.351 15.1425 163.351 15.5275C163.351 15.8862 163.494 16.1815 163.779 16.4241C164.048 16.6457 164.322 16.8144 164.607 16.9305C164.891 17.0465 165.567 17.2575 166.621 17.5739C168.125 18.017 169.238 18.6235 169.95 19.3883C170.714 20.2164 171.099 21.3187 171.099 22.69C171.099 24.784 170.477 26.3663 169.227 27.4475C167.893 28.5867 166.136 29.1564 163.963 29.1564C163.003 29.1564 161.964 28.9876 160.857 28.6553C159.749 28.323 158.826 27.9011 158.098 27.3948C157.903 27.2629 157.803 27.0941 157.803 26.899C157.803 26.8198 157.882 26.63 158.045 26.3241L159.195 24.1721C159.338 23.9031 159.448 23.7344 159.522 23.6658C159.596 23.5972 159.707 23.5603 159.849 23.5603C159.939 23.5603 160.034 23.592 160.129 23.6552C160.229 23.7185 160.54 23.9295 161.062 24.2987C161.853 24.8525 162.792 25.1268 163.879 25.1268C164.696 25.1268 165.298 24.9105 165.683 24.4728C165.983 24.1247 166.136 23.7555 166.136 23.3652C166.136 22.8588 165.941 22.458 165.551 22.1679C165.16 21.8778 164.406 21.5666 163.293 21.2396C161.548 20.7333 160.392 20.2428 159.823 19.7681C158.863 18.9769 158.378 17.7744 158.378 16.1604C158.378 14.2564 159.005 12.7268 160.261 11.577C161.4 10.5274 162.813 10 164.496 10C165.377 10 166.342 10.1213 167.386 10.3587C168.431 10.6013 169.269 10.8861 169.892 11.2289C170.087 11.345 170.187 11.5032 170.187 11.6983C170.187 11.7985 170.108 11.999 169.944 12.2996L169.95 12.2891Z" fill="#303244"/>
<path d="M191.622 25.5439H185.077L184.101 28.044C183.969 28.371 183.858 28.5714 183.769 28.6294C183.679 28.6874 183.452 28.7244 183.088 28.7244H179.977C179.639 28.7244 179.402 28.6874 179.27 28.6083C179.138 28.5345 179.069 28.4026 179.069 28.2127C179.069 28.1125 179.122 27.9227 179.228 27.6378L185.562 11.1819C185.588 11.1134 185.615 11.0342 185.641 10.9551C185.72 10.7389 185.81 10.6123 185.91 10.5596C186.01 10.5068 186.227 10.4857 186.564 10.4857H190.251C190.615 10.4857 190.842 10.5174 190.931 10.5807C191.021 10.644 191.127 10.8444 191.253 11.1819L197.466 27.6378C197.572 27.9121 197.624 28.1073 197.624 28.2127C197.624 28.3974 197.556 28.5292 197.424 28.6083C197.292 28.6822 197.055 28.7244 196.717 28.7244H193.553C193.189 28.7244 192.962 28.6927 192.872 28.6294C192.783 28.5661 192.677 28.3657 192.551 28.0282L191.628 25.5439H191.622ZM190.341 21.9363L188.379 16.124L186.39 21.9363H190.346H190.341Z" fill="#303244"/>
<path d="M212.398 11.7726V15.0585C212.398 15.4066 212.355 15.644 212.276 15.7811C212.197 15.913 212.055 15.9815 211.849 15.9815C211.759 15.9815 211.649 15.9288 211.517 15.8233C210.52 15.0744 209.449 14.6999 208.31 14.6999C206.849 14.6999 205.636 15.201 204.676 16.2083C203.832 17.0997 203.405 18.2706 203.405 19.7211C203.405 21.2875 203.937 22.5217 205.008 23.4236C205.952 24.2253 207.081 24.6262 208.389 24.6262C209.697 24.6262 210.752 24.2517 211.664 23.5028C211.77 23.4131 211.881 23.3709 211.997 23.3709C212.155 23.3709 212.266 23.4342 212.318 23.5555C212.371 23.6768 212.398 23.9194 212.398 24.2781V27.564C212.398 27.8488 212.382 28.0387 212.355 28.1336C212.329 28.2286 212.266 28.3077 212.171 28.3657C212.118 28.4079 212.023 28.4554 211.891 28.4975C210.921 28.7982 210.203 28.9986 209.745 29.083C209.286 29.1727 208.774 29.2149 208.204 29.2149C206.496 29.2149 204.871 28.7929 203.326 27.9437C201.685 27.0418 200.451 25.8498 199.613 24.3625C198.837 22.9911 198.452 21.4563 198.452 19.7527C198.452 17.8539 198.922 16.1451 199.866 14.6208C200.757 13.1756 201.991 12.0469 203.568 11.2294C205.013 10.4699 206.527 10.0954 208.125 10.0954C209.402 10.0954 210.678 10.3486 211.96 10.8549C212.165 10.9287 212.287 11.0131 212.334 11.1081C212.376 11.2083 212.403 11.4245 212.403 11.7621L212.398 11.7726Z" fill="#303244"/>
<path d="M226.797 25.5439H220.252L219.276 28.044C219.144 28.371 219.033 28.5714 218.944 28.6294C218.854 28.6874 218.627 28.7244 218.263 28.7244H215.151C214.814 28.7244 214.576 28.6874 214.445 28.6083C214.313 28.5345 214.244 28.4026 214.244 28.2127C214.244 28.1125 214.297 27.9227 214.402 27.6378L220.737 11.1819C220.763 11.1134 220.79 11.0342 220.816 10.9551C220.895 10.7389 220.985 10.6123 221.085 10.5596C221.185 10.5068 221.401 10.4857 221.739 10.4857H225.426C225.79 10.4857 226.016 10.5174 226.106 10.5807C226.196 10.644 226.301 10.8444 226.428 11.1819L232.641 27.6378C232.747 27.9121 232.799 28.1073 232.799 28.2127C232.799 28.3974 232.731 28.5292 232.599 28.6083C232.467 28.6822 232.23 28.7244 231.892 28.7244H228.727C228.364 28.7244 228.137 28.6927 228.047 28.6294C227.957 28.5661 227.852 28.3657 227.725 28.0282L226.802 25.5439H226.797ZM225.515 21.9363L223.553 16.124L221.565 21.9363H225.521H225.515Z" fill="#303244"/>
<path d="M235.136 27.8173V11.3983C235.136 10.9974 235.189 10.7443 235.289 10.644C235.389 10.5438 235.642 10.4911 236.043 10.4911H242.135C244.413 10.4911 246.412 11.2981 248.132 12.9067C249.113 13.8139 249.862 14.8846 250.389 16.1135C250.88 17.2633 251.122 18.4237 251.122 19.5999C251.122 21.3298 250.632 22.9596 249.651 24.4892C248.67 26.0134 247.388 27.1474 245.806 27.8964C244.63 28.4502 243.406 28.7245 242.135 28.7245H236.043C235.642 28.7245 235.389 28.6717 235.289 28.5715C235.189 28.4713 235.136 28.2181 235.136 27.8173ZM239.877 24.716H240.959C241.85 24.716 242.604 24.5947 243.216 24.3573C243.828 24.12 244.371 23.7297 244.846 23.197C245.727 22.2107 246.17 21.0081 246.17 19.6051C246.17 18.2022 245.727 17.0154 244.846 16.0239C244.371 15.4912 243.833 15.1009 243.216 14.8635C242.599 14.6209 241.85 14.5049 240.959 14.5049H239.877V24.7265V24.716Z" fill="#303244"/>
<path d="M258.885 14.4994V17.5427H263.305C263.706 17.5427 263.959 17.5955 264.059 17.6957C264.159 17.7959 264.212 18.0491 264.212 18.4499V20.6388C264.212 21.0396 264.159 21.2928 264.059 21.393C263.959 21.4932 263.706 21.546 263.305 21.546H258.885V24.7106H263.616C264.017 24.7106 264.27 24.7633 264.37 24.8635C264.471 24.9637 264.523 25.2169 264.523 25.6177V27.8066C264.523 28.2074 264.471 28.4606 264.37 28.5608C264.27 28.661 264.017 28.7138 263.616 28.7138H255.051C254.65 28.7138 254.397 28.661 254.296 28.5608C254.196 28.4606 254.144 28.2074 254.144 27.8066V11.3876C254.144 10.9867 254.196 10.7336 254.296 10.6334C254.397 10.5331 254.65 10.4804 255.051 10.4804H263.616C264.017 10.4804 264.27 10.5331 264.37 10.6334C264.471 10.7336 264.523 10.9867 264.523 11.3876V13.5764C264.523 13.9773 264.471 14.2305 264.37 14.3307C264.27 14.4309 264.017 14.4836 263.616 14.4836H258.885V14.4994Z" fill="#303244"/>
<path d="M278.19 20.217L281.824 11.1715C281.966 10.8339 282.082 10.6335 282.166 10.5755C282.251 10.5175 282.478 10.4911 282.842 10.4911H285.98C286.365 10.4911 286.602 10.5333 286.702 10.6177C286.803 10.7021 286.882 10.9341 286.945 11.3192L289.429 27.7382C289.466 27.9808 289.482 28.1337 289.482 28.2076C289.482 28.4027 289.419 28.5399 289.287 28.6137C289.155 28.6875 288.918 28.7297 288.569 28.7297H285.669C285.278 28.7297 285.03 28.6875 284.935 28.6031C284.835 28.5188 284.761 28.2814 284.709 27.8911L283.48 18.2338L279.35 28.0652C279.208 28.3922 279.092 28.5873 279.007 28.6453C278.923 28.7034 278.696 28.7297 278.332 28.7297H277.915C277.551 28.7297 277.325 28.7034 277.235 28.6453C277.145 28.5873 277.034 28.3869 276.903 28.0493L272.973 18.2285L271.544 27.9017C271.481 28.2867 271.402 28.5188 271.301 28.6031C271.201 28.6875 270.964 28.7297 270.579 28.7297H267.72C267.372 28.7297 267.135 28.6928 267.003 28.6137C266.871 28.5399 266.808 28.4027 266.808 28.2076C266.808 28.1285 266.829 27.9649 266.876 27.7276L269.656 11.3086C269.73 10.9236 269.809 10.6915 269.904 10.6124C269.999 10.5333 270.241 10.4911 270.632 10.4911H273.743C274.097 10.4911 274.323 10.5175 274.413 10.5755C274.503 10.6335 274.614 10.8339 274.745 11.182L278.179 20.2117L278.19 20.217Z" fill="#303244"/>
<path d="M296.945 19.9638L291.149 11.6567C290.943 11.3561 290.843 11.1346 290.843 11.0027C290.843 10.8181 290.911 10.6862 291.048 10.6071C291.186 10.528 291.423 10.4911 291.75 10.4911H295.368C295.706 10.4911 295.911 10.5122 295.985 10.5491C296.059 10.5913 296.191 10.7495 296.386 11.0238L299.461 15.4595L302.415 11.0396C302.605 10.7548 302.731 10.5913 302.81 10.5544C302.884 10.5122 303.095 10.4964 303.433 10.4964H307.093C307.7 10.4964 308 10.6651 308 11.0027C308 11.1451 307.895 11.3613 307.678 11.6567L301.692 19.9638V27.8173C301.692 28.2181 301.639 28.4713 301.539 28.5715C301.439 28.6717 301.186 28.7245 300.785 28.7245H297.858C297.457 28.7245 297.204 28.6717 297.103 28.5715C297.003 28.4713 296.95 28.2181 296.95 27.8173V19.9638H296.945Z" fill="#303244"/>
</svg>
