<svg width="30" height="31" viewBox="0 0 30 31" fill="none" xmlns="http://www.w3.org/2000/svg">
<g clip-path="url(#clip0_44_4796)">
<path d="M15 0.807617C6.7158 0.807617 0 7.52342 0 15.8076C0 22.842 4.8432 28.7448 11.3766 30.366V20.3916H8.2836V15.8076H11.3766V13.8324C11.3766 8.72702 13.6872 6.36062 18.6996 6.36062C19.65 6.36062 21.2898 6.54722 21.9606 6.73322V10.8882C21.6066 10.851 20.9916 10.8324 20.2278 10.8324C17.7684 10.8324 16.818 11.7642 16.818 14.1864V15.8076H21.7176L20.8758 20.3916H16.818V30.6978C24.2454 29.8008 30.0006 23.4768 30.0006 15.8076C30 7.52342 23.2842 0.807617 15 0.807617Z" fill="white"/>
</g>
<defs>
<clipPath id="clip0_44_4796">
<rect width="30" height="30" fill="white" transform="translate(0 0.807617)"/>
</clipPath>
</defs>
</svg>
