<svg width="30" height="31" viewBox="0 0 30 31" fill="none" xmlns="http://www.w3.org/2000/svg">
<g clip-path="url(#clip0_44_4794)">
<path d="M15 3.50879C19.0078 3.50879 19.4824 3.52637 21.0586 3.59668C22.5234 3.66113 23.3145 3.90723 23.8418 4.1123C24.5391 4.38184 25.043 4.70996 25.5645 5.23145C26.0918 5.75879 26.4141 6.25684 26.6836 6.9541C26.8887 7.48145 27.1348 8.27832 27.1992 9.7373C27.2695 11.3193 27.2871 11.7939 27.2871 15.7959C27.2871 19.8037 27.2695 20.2783 27.1992 21.8545C27.1348 23.3193 26.8887 24.1104 26.6836 24.6377C26.4141 25.335 26.0859 25.8389 25.5645 26.3604C25.0371 26.8877 24.5391 27.21 23.8418 27.4795C23.3145 27.6846 22.5176 27.9307 21.0586 27.9951C19.4766 28.0654 19.002 28.083 15 28.083C10.9922 28.083 10.5176 28.0654 8.94141 27.9951C7.47656 27.9307 6.68555 27.6846 6.1582 27.4795C5.46094 27.21 4.95703 26.8818 4.43555 26.3604C3.9082 25.833 3.58594 25.335 3.31641 24.6377C3.11133 24.1104 2.86523 23.3135 2.80078 21.8545C2.73047 20.2725 2.71289 19.7979 2.71289 15.7959C2.71289 11.7881 2.73047 11.3135 2.80078 9.7373C2.86523 8.27246 3.11133 7.48145 3.31641 6.9541C3.58594 6.25684 3.91406 5.75293 4.43555 5.23145C4.96289 4.7041 5.46094 4.38184 6.1582 4.1123C6.68555 3.90723 7.48242 3.66113 8.94141 3.59668C10.5176 3.52637 10.9922 3.50879 15 3.50879ZM15 0.807617C10.9277 0.807617 10.418 0.825195 8.81836 0.895508C7.22461 0.96582 6.12891 1.22363 5.17969 1.59277C4.18945 1.97949 3.35156 2.48926 2.51953 3.32715C1.68164 4.15918 1.17188 4.99707 0.785156 5.98145C0.416016 6.93652 0.158203 8.02637 0.0878906 9.62012C0.0175781 11.2256 0 11.7354 0 15.8076C0 19.8799 0.0175781 20.3896 0.0878906 21.9893C0.158203 23.583 0.416016 24.6787 0.785156 25.6279C1.17188 26.6182 1.68164 27.4561 2.51953 28.2881C3.35156 29.1201 4.18945 29.6357 5.17383 30.0166C6.12891 30.3857 7.21875 30.6436 8.8125 30.7139C10.4121 30.7842 10.9219 30.8018 14.9941 30.8018C19.0664 30.8018 19.5762 30.7842 21.1758 30.7139C22.7695 30.6436 23.8652 30.3857 24.8145 30.0166C25.7988 29.6357 26.6367 29.1201 27.4688 28.2881C28.3008 27.4561 28.8164 26.6182 29.1973 25.6338C29.5664 24.6787 29.8242 23.5889 29.8945 21.9951C29.9648 20.3955 29.9824 19.8857 29.9824 15.8135C29.9824 11.7412 29.9648 11.2314 29.8945 9.63184C29.8242 8.03809 29.5664 6.94238 29.1973 5.99316C28.8281 4.99707 28.3184 4.15918 27.4805 3.32715C26.6484 2.49512 25.8105 1.97949 24.8262 1.59863C23.8711 1.22949 22.7813 0.97168 21.1875 0.901367C19.582 0.825195 19.0723 0.807617 15 0.807617Z" fill="white"/>
<path d="M15 8.10254C10.7461 8.10254 7.29492 11.5537 7.29492 15.8076C7.29492 20.0615 10.7461 23.5127 15 23.5127C19.2539 23.5127 22.7051 20.0615 22.7051 15.8076C22.7051 11.5537 19.2539 8.10254 15 8.10254ZM15 20.8057C12.2402 20.8057 10.002 18.5674 10.002 15.8076C10.002 13.0479 12.2402 10.8096 15 10.8096C17.7598 10.8096 19.998 13.0479 19.998 15.8076C19.998 18.5674 17.7598 20.8057 15 20.8057Z" fill="white"/>
<path d="M24.8086 7.79779C24.8086 8.79389 24 9.59662 23.0098 9.59662C22.0137 9.59662 21.2109 8.78803 21.2109 7.79779C21.2109 6.8017 22.0195 5.99896 23.0098 5.99896C24 5.99896 24.8086 6.80756 24.8086 7.79779Z" fill="white"/>
</g>
<defs>
<clipPath id="clip0_44_4794">
<rect width="30" height="30" fill="white" transform="translate(0 0.807617)"/>
</clipPath>
</defs>
</svg>
