<svg width="30" height="31" viewBox="0 0 30 31" fill="none" xmlns="http://www.w3.org/2000/svg">
<g clip-path="url(#clip0_44_4793)">
<path d="M27.7793 0.807617H2.21484C0.990234 0.807617 0 1.77441 0 2.96973V28.6396C0 29.835 0.990234 30.8076 2.21484 30.8076H27.7793C29.0039 30.8076 30 29.835 30 28.6455V2.96973C30 1.77441 29.0039 0.807617 27.7793 0.807617ZM8.90039 26.3721H4.44727V12.0518H8.90039V26.3721ZM6.67383 10.1006C5.24414 10.1006 4.08984 8.94629 4.08984 7.52246C4.08984 6.09863 5.24414 4.94434 6.67383 4.94434C8.09766 4.94434 9.25195 6.09863 9.25195 7.52246C9.25195 8.94043 8.09766 10.1006 6.67383 10.1006ZM25.5645 26.3721H21.1172V19.4111C21.1172 17.7529 21.0879 15.6143 18.8027 15.6143C16.4883 15.6143 16.1367 17.4248 16.1367 19.2939V26.3721H11.6953V12.0518H15.9609V14.0088H16.0195C16.6113 12.8838 18.0645 11.6943 20.2266 11.6943C24.7324 11.6943 25.5645 14.6592 25.5645 18.5146V26.3721V26.3721Z" fill="white"/>
</g>
<defs>
<clipPath id="clip0_44_4793">
<rect width="30" height="30" fill="white" transform="translate(0 0.807617)"/>
</clipPath>
</defs>
</svg>
