<svg width="174" height="56" viewBox="0 0 174 56" fill="none" xmlns="http://www.w3.org/2000/svg">
<path d="M74.392 22.0158C74.792 22.0158 75.176 21.9758 75.544 21.8958C75.912 21.8158 76.28 21.7198 76.648 21.6078V24.2718C76.264 24.4318 75.784 24.5678 75.208 24.6798C74.648 24.8078 74.032 24.8718 73.36 24.8718C72.576 24.8718 71.872 24.7438 71.248 24.4878C70.64 24.2318 70.152 23.7918 69.784 23.1678C69.432 22.5278 69.256 21.6478 69.256 20.5278V14.2158H67.552V12.7038L69.52 11.5038L70.552 8.74383H72.832V11.5278H76.504V14.2158H72.832V20.5278C72.832 21.0238 72.976 21.3998 73.264 21.6558C73.552 21.8958 73.928 22.0158 74.392 22.0158ZM82.6143 10.1118C82.6143 10.7518 82.5903 11.3678 82.5423 11.9598C82.5103 12.5518 82.4783 12.9678 82.4463 13.2078H82.6383C82.9263 12.7598 83.2623 12.3998 83.6463 12.1278C84.0303 11.8398 84.4543 11.6318 84.9183 11.5038C85.3983 11.3598 85.9023 11.2878 86.4303 11.2878C87.3743 11.2878 88.1983 11.4558 88.9023 11.7918C89.6063 12.1278 90.1503 12.6478 90.5343 13.3518C90.9343 14.0558 91.1343 14.9678 91.1343 16.0878V24.6318H87.5583V16.9758C87.5583 16.0318 87.3823 15.3278 87.0303 14.8638C86.6943 14.3838 86.1663 14.1438 85.4463 14.1438C84.7263 14.1438 84.1583 14.3118 83.7423 14.6478C83.3423 14.9838 83.0543 15.4718 82.8783 16.1118C82.7023 16.7518 82.6143 17.5358 82.6143 18.4638V24.6318H79.0383V6.39183H82.6143V10.1118ZM99.9717 11.2878C101.188 11.2878 102.228 11.5198 103.092 11.9838C103.972 12.4478 104.652 13.1198 105.132 13.9998C105.612 14.8798 105.852 15.9598 105.852 17.2398V18.9678H97.4037C97.4357 19.9758 97.7317 20.7678 98.2917 21.3438C98.8677 21.9198 99.6597 22.2078 100.668 22.2078C101.516 22.2078 102.284 22.1278 102.972 21.9678C103.66 21.7918 104.372 21.5278 105.108 21.1758V23.9358C104.468 24.2558 103.788 24.4878 103.068 24.6318C102.364 24.7918 101.508 24.8718 100.5 24.8718C99.1877 24.8718 98.0277 24.6318 97.0197 24.1518C96.0117 23.6558 95.2197 22.9118 94.6437 21.9198C94.0677 20.9278 93.7797 19.6798 93.7797 18.1758C93.7797 16.6398 94.0357 15.3678 94.5477 14.3598C95.0757 13.3358 95.8037 12.5678 96.7317 12.0558C97.6597 11.5438 98.7397 11.2878 99.9717 11.2878ZM99.9957 13.8318C99.3077 13.8318 98.7317 14.0558 98.2677 14.5038C97.8197 14.9518 97.5557 15.6478 97.4757 16.5918H102.492C102.492 16.0638 102.396 15.5918 102.204 15.1758C102.028 14.7598 101.756 14.4318 101.388 14.1918C101.02 13.9518 100.556 13.8318 99.9957 13.8318ZM74.248 36.2638C76.008 36.2638 77.352 36.6478 78.28 37.4158C79.224 38.1678 79.696 39.3278 79.696 40.8958V49.6318H77.2L76.504 47.8558H76.408C76.04 48.3198 75.656 48.7038 75.256 49.0078C74.872 49.3118 74.424 49.5278 73.912 49.6558C73.416 49.7998 72.8 49.8718 72.064 49.8718C71.296 49.8718 70.6 49.7278 69.976 49.4398C69.368 49.1358 68.888 48.6798 68.536 48.0718C68.184 47.4478 68.008 46.6638 68.008 45.7198C68.008 44.3278 68.496 43.3038 69.472 42.6478C70.448 41.9758 71.912 41.6078 73.864 41.5438L76.144 41.4718V40.8958C76.144 40.2078 75.96 39.7038 75.592 39.3838C75.24 39.0638 74.744 38.9038 74.104 38.9038C73.464 38.9038 72.84 38.9998 72.232 39.1918C71.624 39.3678 71.016 39.5918 70.408 39.8638L69.232 37.4398C69.936 37.0718 70.712 36.7838 71.56 36.5758C72.424 36.3678 73.32 36.2638 74.248 36.2638ZM74.752 43.6078C73.6 43.6398 72.8 43.8478 72.352 44.2318C71.904 44.6158 71.68 45.1198 71.68 45.7438C71.68 46.2878 71.84 46.6798 72.16 46.9198C72.48 47.1438 72.896 47.2558 73.408 47.2558C74.176 47.2558 74.824 47.0318 75.352 46.5838C75.88 46.1198 76.144 45.4718 76.144 44.6398V43.5598L74.752 43.6078ZM88.4444 49.8718C87.1484 49.8718 86.0444 49.6398 85.1324 49.1758C84.2204 48.6958 83.5244 47.9598 83.0444 46.9678C82.5644 45.9758 82.3244 44.7038 82.3244 43.1518C82.3244 41.5518 82.5964 40.2478 83.1404 39.2398C83.6844 38.2318 84.4364 37.4878 85.3964 37.0078C86.3724 36.5278 87.4924 36.2878 88.7564 36.2878C89.6524 36.2878 90.4284 36.3758 91.0844 36.5518C91.7564 36.7278 92.3404 36.9358 92.8364 37.1758L91.7804 39.9358C91.2204 39.7118 90.6924 39.5278 90.1964 39.3838C89.7164 39.2398 89.2364 39.1678 88.7564 39.1678C88.1324 39.1678 87.6124 39.3198 87.1964 39.6238C86.7804 39.9118 86.4684 40.3518 86.2604 40.9438C86.0684 41.5198 85.9724 42.2478 85.9724 43.1278C85.9724 43.9918 86.0764 44.7118 86.2844 45.2878C86.5084 45.8478 86.8284 46.2718 87.2444 46.5598C87.6604 46.8318 88.1644 46.9678 88.7564 46.9678C89.5084 46.9678 90.1724 46.8718 90.7484 46.6798C91.3244 46.4718 91.8844 46.1918 92.4284 45.8398V48.8878C91.8844 49.2398 91.3084 49.4878 90.7004 49.6318C90.1084 49.7918 89.3564 49.8718 88.4444 49.8718ZM100.581 36.2638C102.341 36.2638 103.685 36.6478 104.613 37.4158C105.557 38.1678 106.029 39.3278 106.029 40.8958V49.6318H103.533L102.837 47.8558H102.741C102.373 48.3198 101.989 48.7038 101.589 49.0078C101.205 49.3118 100.757 49.5278 100.245 49.6558C99.7485 49.7998 99.1325 49.8718 98.3965 49.8718C97.6285 49.8718 96.9325 49.7278 96.3085 49.4398C95.7005 49.1358 95.2205 48.6798 94.8685 48.0718C94.5165 47.4478 94.3405 46.6638 94.3405 45.7198C94.3405 44.3278 94.8285 43.3038 95.8045 42.6478C96.7805 41.9758 98.2445 41.6078 100.197 41.5438L102.477 41.4718V40.8958C102.477 40.2078 102.293 39.7038 101.925 39.3838C101.573 39.0638 101.077 38.9038 100.437 38.9038C99.7965 38.9038 99.1725 38.9998 98.5645 39.1918C97.9565 39.3678 97.3485 39.5918 96.7405 39.8638L95.5645 37.4398C96.2685 37.0718 97.0445 36.7838 97.8925 36.5758C98.7565 36.3678 99.6525 36.2638 100.581 36.2638ZM101.085 43.6078C99.9325 43.6398 99.1325 43.8478 98.6845 44.2318C98.2365 44.6158 98.0125 45.1198 98.0125 45.7438C98.0125 46.2878 98.1725 46.6798 98.4925 46.9198C98.8125 47.1438 99.2285 47.2558 99.7405 47.2558C100.509 47.2558 101.157 47.0318 101.685 46.5838C102.213 46.1198 102.477 45.4718 102.477 44.6398V43.5598L101.085 43.6078ZM113.601 49.8718C112.145 49.8718 110.953 49.3038 110.025 48.1678C109.113 47.0158 108.657 45.3278 108.657 43.1038C108.657 40.8638 109.121 39.1678 110.049 38.0158C110.977 36.8638 112.193 36.2878 113.697 36.2878C114.321 36.2878 114.873 36.3758 115.353 36.5518C115.833 36.7118 116.241 36.9358 116.577 37.2238C116.929 37.5118 117.225 37.8398 117.465 38.2078H117.585C117.537 37.9518 117.481 37.5838 117.417 37.1038C117.353 36.6078 117.321 36.1038 117.321 35.5918V31.3918H120.897V49.6318H118.161L117.465 47.9278H117.321C117.097 48.2798 116.809 48.6078 116.457 48.9118C116.121 49.1998 115.721 49.4318 115.257 49.6078C114.793 49.7838 114.241 49.8718 113.601 49.8718ZM114.849 47.0158C115.841 47.0158 116.537 46.7278 116.937 46.1518C117.337 45.5598 117.545 44.6798 117.561 43.5118V43.1278C117.561 41.8478 117.361 40.8718 116.961 40.1998C116.577 39.5278 115.857 39.1918 114.801 39.1918C114.017 39.1918 113.401 39.5358 112.953 40.2238C112.505 40.8958 112.281 41.8718 112.281 43.1518C112.281 44.4318 112.505 45.3998 112.953 46.0558C113.401 46.6958 114.033 47.0158 114.849 47.0158ZM129.796 36.2878C131.012 36.2878 132.052 36.5198 132.916 36.9838C133.796 37.4478 134.476 38.1198 134.956 38.9998C135.436 39.8798 135.676 40.9598 135.676 42.2398V43.9678H127.228C127.26 44.9758 127.556 45.7678 128.116 46.3438C128.692 46.9198 129.484 47.2078 130.492 47.2078C131.34 47.2078 132.108 47.1278 132.796 46.9678C133.484 46.7918 134.196 46.5278 134.932 46.1758V48.9358C134.292 49.2558 133.612 49.4878 132.892 49.6318C132.188 49.7918 131.332 49.8718 130.324 49.8718C129.012 49.8718 127.852 49.6318 126.844 49.1518C125.836 48.6558 125.044 47.9118 124.468 46.9198C123.892 45.9278 123.604 44.6798 123.604 43.1758C123.604 41.6398 123.86 40.3678 124.372 39.3598C124.9 38.3358 125.628 37.5678 126.556 37.0558C127.484 36.5438 128.564 36.2878 129.796 36.2878ZM129.82 38.8318C129.132 38.8318 128.556 39.0558 128.092 39.5038C127.644 39.9518 127.38 40.6478 127.3 41.5918H132.316C132.316 41.0638 132.22 40.5918 132.028 40.1758C131.852 39.7598 131.58 39.4318 131.212 39.1918C130.844 38.9518 130.38 38.8318 129.82 38.8318ZM153.72 36.2878C155.208 36.2878 156.328 36.6718 157.08 37.4398C157.848 38.1918 158.232 39.4078 158.232 41.0878V49.6318H154.656V41.9758C154.656 41.0318 154.496 40.3278 154.176 39.8638C153.856 39.3838 153.36 39.1438 152.688 39.1438C151.744 39.1438 151.072 39.4798 150.672 40.1518C150.272 40.8238 150.072 41.7918 150.072 43.0558V49.6318H146.496V41.9758C146.496 41.3518 146.424 40.8318 146.28 40.4158C146.136 39.9998 145.92 39.6878 145.632 39.4798C145.344 39.2558 144.976 39.1438 144.528 39.1438C143.872 39.1438 143.352 39.3118 142.968 39.6478C142.584 39.9838 142.312 40.4718 142.152 41.1118C141.992 41.7518 141.912 42.5358 141.912 43.4638V49.6318H138.336V36.5278H141.072L141.552 38.2078H141.744C142.016 37.7598 142.352 37.3998 142.752 37.1278C143.152 36.8398 143.592 36.6318 144.072 36.5038C144.568 36.3598 145.064 36.2878 145.56 36.2878C146.52 36.2878 147.336 36.4478 148.008 36.7678C148.68 37.0718 149.192 37.5518 149.544 38.2078H149.856C150.256 37.5358 150.808 37.0478 151.512 36.7438C152.232 36.4398 152.968 36.2878 153.72 36.2878ZM159.802 36.5278H163.714L166.186 43.8958C166.266 44.1358 166.33 44.3758 166.378 44.6158C166.442 44.8558 166.49 45.1038 166.522 45.3598C166.57 45.6158 166.602 45.8878 166.618 46.1758H166.69C166.738 45.7598 166.802 45.3678 166.882 44.9998C166.978 44.6158 167.082 44.2478 167.194 43.8958L169.618 36.5278H173.458L167.914 51.3118C167.578 52.2078 167.138 52.9598 166.594 53.5678C166.066 54.1758 165.45 54.6318 164.746 54.9358C164.042 55.2398 163.274 55.3918 162.442 55.3918C162.042 55.3918 161.69 55.3678 161.386 55.3198C161.098 55.2878 160.842 55.2478 160.618 55.1998V52.3678C160.794 52.3998 161.002 52.4318 161.242 52.4638C161.498 52.4958 161.762 52.5118 162.034 52.5118C162.53 52.5118 162.954 52.4078 163.306 52.1998C163.674 51.9918 163.978 51.7038 164.218 51.3358C164.458 50.9838 164.65 50.5998 164.794 50.1838L165.01 49.5358L159.802 36.5278Z" fill="#3E3E59"/>
<path d="M114.283 24.6318L109.291 11.5278H113.035L115.555 18.9918C115.651 19.2798 115.731 19.5838 115.795 19.9038C115.875 20.2238 115.931 20.5358 115.963 20.8398C116.011 21.1438 116.043 21.4238 116.059 21.6798H116.155C116.171 21.4078 116.203 21.1198 116.251 20.8158C116.299 20.5118 116.355 20.2078 116.419 19.9038C116.499 19.5838 116.587 19.2798 116.683 18.9918L119.203 11.5278H122.947L117.955 24.6318H114.283ZM128.163 11.5278V24.6318H124.587V11.5278H128.163ZM126.387 6.39183C126.915 6.39183 127.371 6.51983 127.755 6.77584C128.139 7.01584 128.331 7.47184 128.331 8.14384C128.331 8.79984 128.139 9.25584 127.755 9.51183C127.371 9.76784 126.915 9.89584 126.387 9.89584C125.843 9.89584 125.379 9.76784 124.995 9.51183C124.627 9.25584 124.443 8.79984 124.443 8.14384C124.443 7.47184 124.627 7.01584 124.995 6.77584C125.379 6.51983 125.843 6.39183 126.387 6.39183ZM135.235 10.6398C135.235 11.1358 135.219 11.6238 135.187 12.1038C135.155 12.5838 135.123 12.9598 135.091 13.2318H135.235C135.587 12.6878 136.059 12.2318 136.651 11.8638C137.243 11.4798 138.011 11.2878 138.955 11.2878C140.427 11.2878 141.619 11.8638 142.531 13.0158C143.443 14.1518 143.899 15.8318 143.899 18.0558C143.899 19.5438 143.683 20.7998 143.251 21.8238C142.835 22.8318 142.251 23.5918 141.499 24.1038C140.747 24.6158 139.867 24.8718 138.859 24.8718C137.899 24.8718 137.139 24.7038 136.579 24.3678C136.035 24.0158 135.587 23.6238 135.235 23.1918H134.995L134.395 24.6318H131.659V6.39183H135.235V10.6398ZM137.803 14.1438C137.179 14.1438 136.683 14.2718 136.315 14.5278C135.947 14.7838 135.675 15.1758 135.499 15.7038C135.339 16.2158 135.251 16.8638 135.235 17.6478V18.0318C135.235 19.2958 135.419 20.2718 135.787 20.9598C136.171 21.6318 136.859 21.9678 137.851 21.9678C138.587 21.9678 139.171 21.6318 139.603 20.9598C140.035 20.2718 140.251 19.2878 140.251 18.0078C140.251 16.7278 140.027 15.7678 139.579 15.1278C139.147 14.4718 138.555 14.1438 137.803 14.1438ZM152.007 11.2878C153.223 11.2878 154.263 11.5198 155.127 11.9838C156.007 12.4478 156.687 13.1198 157.167 13.9998C157.647 14.8798 157.887 15.9598 157.887 17.2398V18.9678H149.439C149.471 19.9758 149.767 20.7678 150.327 21.3438C150.903 21.9198 151.695 22.2078 152.703 22.2078C153.551 22.2078 154.319 22.1278 155.007 21.9678C155.695 21.7918 156.407 21.5278 157.143 21.1758V23.9358C156.503 24.2558 155.823 24.4878 155.103 24.6318C154.399 24.7918 153.543 24.8718 152.535 24.8718C151.223 24.8718 150.063 24.6318 149.055 24.1518C148.047 23.6558 147.255 22.9118 146.679 21.9198C146.103 20.9278 145.815 19.6798 145.815 18.1758C145.815 16.6398 146.071 15.3678 146.583 14.3598C147.111 13.3358 147.839 12.5678 148.767 12.0558C149.695 11.5438 150.775 11.2878 152.007 11.2878ZM152.031 13.8318C151.343 13.8318 150.767 14.0558 150.303 14.5038C149.855 14.9518 149.591 15.6478 149.511 16.5918H154.527C154.527 16.0638 154.431 15.5918 154.239 15.1758C154.063 14.7598 153.791 14.4318 153.423 14.1918C153.055 13.9518 152.591 13.8318 152.031 13.8318ZM169.69 20.7438C169.69 21.6238 169.482 22.3758 169.066 22.9998C168.65 23.6078 168.026 24.0718 167.194 24.3918C166.362 24.7118 165.33 24.8718 164.098 24.8718C163.186 24.8718 162.402 24.8078 161.746 24.6798C161.09 24.5678 160.434 24.3758 159.778 24.1038V21.1518C160.482 21.4718 161.242 21.7358 162.058 21.9438C162.874 22.1518 163.594 22.2558 164.218 22.2558C164.922 22.2558 165.418 22.1518 165.706 21.9438C166.01 21.7358 166.162 21.4638 166.162 21.1278C166.162 20.9038 166.098 20.7038 165.97 20.5278C165.858 20.3518 165.602 20.1518 165.202 19.9278C164.802 19.7038 164.178 19.4158 163.33 19.0638C162.514 18.7118 161.842 18.3678 161.314 18.0318C160.786 17.6798 160.394 17.2638 160.138 16.7838C159.882 16.2878 159.754 15.6718 159.754 14.9358C159.754 13.7198 160.226 12.8078 161.17 12.1998C162.114 11.5918 163.37 11.2878 164.938 11.2878C165.754 11.2878 166.53 11.3678 167.266 11.5278C168.002 11.6878 168.762 11.9518 169.546 12.3198L168.466 14.8878C168.034 14.6958 167.618 14.5278 167.218 14.3838C166.818 14.2398 166.426 14.1278 166.042 14.0478C165.674 13.9678 165.29 13.9278 164.89 13.9278C164.362 13.9278 163.962 13.9998 163.69 14.1438C163.434 14.2878 163.306 14.5038 163.306 14.7918C163.306 14.9998 163.37 15.1918 163.498 15.3678C163.642 15.5278 163.906 15.7038 164.29 15.8958C164.69 16.0878 165.274 16.3438 166.042 16.6638C166.794 16.9678 167.442 17.2878 167.986 17.6238C168.53 17.9438 168.946 18.3518 169.234 18.8478C169.538 19.3278 169.69 19.9598 169.69 20.7438Z" fill="#FF3701"/>
<circle cx="28" cy="28" r="27.5" fill="white" stroke="#BCBCBC"/>
<path d="M42.673 17.7235C42.1445 16.8036 41.1972 16.2543 40.1364 16.2543H36.2155C35.2395 16.2543 34.3314 16.7384 33.7873 17.5486L31.7283 20.6162C31.9084 20.6854 32.0558 20.7937 32.1693 20.9294C32.185 20.9437 32.202 20.9568 32.2163 20.9724L34.2883 17.8853C34.7202 17.242 35.4405 16.8584 36.2155 16.8584H40.1364C40.978 16.8584 41.7309 17.2942 42.1498 18.0236C42.5686 18.753 42.566 19.6233 42.1406 20.35L31.3669 38.796L21.8275 22.6334C22.0362 22.4195 22.1641 22.1285 22.1641 21.8062C22.1641 21.1512 21.6331 20.6201 20.9781 20.6201C20.323 20.6201 19.792 21.1512 19.792 21.8062C19.792 22.4612 20.323 22.9923 20.9781 22.9923C21.0929 22.9923 21.2038 22.9753 21.3095 22.944L31.3695 39.9886L42.6612 20.6541C43.1962 19.7381 43.2001 18.6421 42.6717 17.7222L42.673 17.7235Z" fill="#FF1E00"/>
<path d="M16.6122 20.5407C16.2417 19.9027 16.487 19.3377 16.6096 19.125C16.7323 18.9123 17.0976 18.4165 17.8361 18.4165H21.9084C22.4147 18.4165 22.8857 18.6905 23.1375 19.1302L31.3069 33.4426L37.5269 22.494C37.9849 21.6889 37.4029 20.6895 36.4765 20.6895C36.042 20.6895 35.6401 20.923 35.4261 21.3014L31.303 28.56L25.237 17.9324C24.5572 16.7411 23.2824 16 21.9097 16H17.8766C16.5078 16 15.2265 16.7111 14.5337 17.892C13.8252 19.0989 13.8226 20.5459 14.5232 21.7542L27.2894 43.7583C27.7604 44.5712 28.9387 44.5582 29.3927 43.7348C29.5976 43.363 29.5924 42.9128 29.3797 42.5449L16.6135 20.5407H16.6122Z" fill="#FF1E00"/>
<path fill-rule="evenodd" clip-rule="evenodd" d="M31.5817 21.3208V21.3247L31.5843 21.3273C31.5765 21.3429 31.5751 21.3416 31.5634 21.3573L31.3546 21.6444C31.1563 21.9223 30.9423 22.2028 30.744 22.4807L30.5913 22.6882C30.5665 22.7234 30.5391 22.7573 30.5156 22.7926L30.363 23L30.3525 23.0144L30.363 23.0105C30.4504 22.9648 30.5404 22.9204 30.6305 22.8735C30.6761 22.85 30.7179 22.8291 30.7636 22.8043C30.787 22.7913 30.8797 22.7417 30.8993 22.7365L31.4955 22.4272C31.5177 22.4155 31.566 22.3946 31.583 22.3816V21.3416C31.6025 21.3364 31.5947 21.3416 31.626 21.3821L31.7382 21.5347C31.7904 21.6013 31.8374 21.6731 31.8883 21.7409L32.7912 22.9766C32.7912 22.9766 32.7938 22.9831 32.7951 22.9648L32.5733 21.6587L32.5694 21.6404C32.5289 21.63 32.4859 21.6143 32.4468 21.6013L31.6678 21.3521C31.6495 21.3469 31.6208 21.3403 31.6104 21.3286H31.5882C31.6064 21.309 31.6156 21.2934 31.6286 21.2738C31.7552 21.0937 31.9144 20.8876 32.0462 20.7062C32.0723 20.671 32.0971 20.637 32.1219 20.6031C32.1349 20.5849 32.1466 20.5705 32.1597 20.5522C32.1662 20.5431 32.1727 20.5353 32.178 20.5261C32.1962 20.5027 32.1923 20.5131 32.1936 20.4948C32.1558 20.427 32.0801 20.2665 32.041 20.1869L31.6012 19.297C31.5817 19.2579 31.5869 19.2605 31.5817 19.267C31.5856 19.3479 31.5817 19.4405 31.5817 19.5227V19.7798C31.5817 19.8816 31.5869 21.2908 31.5791 21.3182L31.5817 21.3208Z" fill="#E21500"/>
<path fill-rule="evenodd" clip-rule="evenodd" d="M31.5835 22.3822C31.6018 22.3861 31.7114 22.4461 31.7361 22.4605C31.787 22.4879 31.8379 22.5127 31.8875 22.5401C31.9371 22.5675 31.988 22.5923 32.0389 22.6197L32.8061 23.0215L32.7956 22.9654C32.7956 22.9837 32.797 22.9707 32.7917 22.9772L31.8888 21.7415C31.8366 21.6737 31.7896 21.6032 31.7388 21.5354L31.6265 21.3827C31.5952 21.341 31.6031 21.337 31.5848 21.3423V22.3822H31.5835Z" fill="#FF1E00"/>
<path fill-rule="evenodd" clip-rule="evenodd" d="M32.1958 20.4968C32.1945 20.5151 32.1971 20.5034 32.1801 20.5282C32.1736 20.536 32.1684 20.5451 32.1618 20.5543C32.1488 20.5725 32.1384 20.5869 32.124 20.6051C32.0992 20.6391 32.0731 20.673 32.0483 20.7082C31.9165 20.8883 31.7587 21.0957 31.6308 21.2758C31.6177 21.2954 31.6073 21.311 31.5903 21.3293H31.6125C31.6412 21.3293 31.8122 21.268 31.8539 21.2536L33.4301 20.7369C33.4679 20.7252 33.5162 20.7056 33.5541 20.6978C33.5358 20.6873 32.5507 20.5438 32.3654 20.5177C32.338 20.5138 32.2101 20.4864 32.1958 20.4981V20.4968Z" fill="#E21500"/>
<path fill-rule="evenodd" clip-rule="evenodd" d="M30.5882 21.6635L30.3638 22.9983L30.5164 22.7909C30.5412 22.7569 30.5673 22.7217 30.5921 22.6865L30.7448 22.479C30.9418 22.2011 31.1571 21.9206 31.3554 21.6426L31.5642 21.3556C31.5759 21.3399 31.5772 21.3412 31.5851 21.3256C31.5016 21.3477 31.4115 21.3804 31.3306 21.4065C31.2458 21.4339 31.1623 21.4613 31.0775 21.4874L30.6052 21.6387C30.5843 21.6478 30.5986 21.6439 30.5908 21.6622L30.5882 21.6635Z" fill="#FF1E00"/>
<path fill-rule="evenodd" clip-rule="evenodd" d="M29.6073 20.6989L29.7926 20.8777C29.8134 20.8973 29.8317 20.9182 29.8526 20.939C29.9361 21.0186 30.0183 21.0995 30.1018 21.1791C30.1122 21.1896 30.1187 21.2 30.1305 21.2091C30.1422 21.2209 30.1514 21.2287 30.1631 21.2391L30.4697 21.5379C30.4828 21.551 30.5885 21.6436 30.5885 21.6632C30.5963 21.6449 30.582 21.6488 30.6028 21.6397L31.0752 21.4883C31.16 21.4623 31.2435 21.4349 31.3283 21.4075C31.4105 21.3814 31.5005 21.3487 31.5827 21.3266V21.3239C31.5018 21.3031 31.4131 21.2718 31.3335 21.2457C31.2526 21.2183 31.1691 21.1935 31.0882 21.1674C30.7607 21.0643 30.4371 20.956 30.1096 20.8542L29.6334 20.7016C29.6255 20.6976 29.6268 20.7002 29.6229 20.6937L29.606 20.6989H29.6073Z" fill="#E21500"/>
<path fill-rule="evenodd" clip-rule="evenodd" d="M30.9769 20.4944C30.9873 20.5126 31.0017 20.5309 31.0147 20.5479L31.2783 20.908C31.3292 20.9785 31.3801 21.045 31.4297 21.1155C31.4727 21.1768 31.5419 21.2629 31.5797 21.3203C31.5888 21.2929 31.5823 19.8824 31.5823 19.782V19.5249C31.5823 19.4427 31.5862 19.3501 31.5823 19.2692C31.5693 19.2809 31.3083 19.8172 31.2783 19.8798C31.2274 19.9829 31.1765 20.086 31.1269 20.1877C31.0956 20.2504 30.9952 20.4448 30.9756 20.4944H30.9769Z" fill="#FF1E00"/>
<path fill-rule="evenodd" clip-rule="evenodd" d="M29.625 20.6938C29.6289 20.7003 29.6263 20.6977 29.6354 20.7016L30.1117 20.8543C30.4392 20.956 30.7641 21.0656 31.0903 21.1674C31.1712 21.1922 31.2534 21.2183 31.3356 21.2457C31.4152 21.2718 31.5026 21.3031 31.5822 21.324V21.3201C31.5444 21.264 31.4752 21.1766 31.4321 21.1152C31.3813 21.0448 31.3317 20.9769 31.2808 20.9078L31.0172 20.5476C31.0042 20.5307 30.9885 20.5124 30.9794 20.4941L29.6263 20.6938H29.625Z" fill="#FF1E00"/>
<path fill-rule="evenodd" clip-rule="evenodd" d="M31.6113 21.3298C31.6218 21.3403 31.6505 21.3468 31.6687 21.3533L32.4477 21.6026C32.4882 21.6156 32.5312 21.6313 32.5704 21.6417L32.5743 21.66C32.5886 21.6521 32.8013 21.4408 32.8209 21.4212L33.0062 21.2424C33.0166 21.232 33.0257 21.2242 33.0362 21.2137C33.0479 21.2033 33.0544 21.1928 33.0662 21.1811C33.1497 21.1028 33.2306 21.0219 33.3128 20.9436L33.4654 20.7949C33.4928 20.7675 33.5268 20.7244 33.5581 20.7048C33.5542 20.6983 33.5581 20.7022 33.5529 20.697C33.515 20.7049 33.4668 20.7244 33.4289 20.7362L31.8527 21.2529C31.811 21.2672 31.64 21.3285 31.6113 21.3298Z" fill="#FF1E00"/>
<path fill-rule="evenodd" clip-rule="evenodd" d="M30.3639 23.0101C30.3639 23.031 30.3626 23.0153 30.3691 23.0219C30.403 22.9932 30.8845 22.757 30.9002 22.7374C30.8793 22.7426 30.7879 22.7922 30.7645 22.8053C30.7188 22.8288 30.6757 22.8496 30.6314 22.8744C30.5413 22.9214 30.4526 22.9658 30.3639 23.0114V23.0101Z" fill="#FF1E00"/>
</svg>
