<svg width="61" height="47" viewBox="0 0 61 47" fill="none" xmlns="http://www.w3.org/2000/svg">
<path d="M60.8604 0.303745L60.8604 12.462C60.8604 16.1545 60.2074 20.0721 58.9015 24.2149C57.5506 28.4028 55.6143 32.433 53.0926 36.3056C50.5259 40.2233 47.4413 43.6231 43.8388 46.505L35.193 39.4803C38.0299 35.4275 40.5066 31.1946 42.623 26.7817C44.6944 22.4137 45.7301 17.7305 45.7301 12.7322L45.7301 0.303744L60.8604 0.303745ZM26.277 0.303742L26.277 12.462C26.277 16.1545 25.624 20.0721 24.3181 24.2149C22.9672 28.4028 21.0309 32.433 18.5092 36.3056C15.9425 40.2233 12.8579 43.6231 9.25544 46.505L0.609589 39.4802C3.44651 35.4275 5.92318 31.1946 8.03961 26.7817C10.111 22.4137 11.1467 17.7305 11.1467 12.7322L11.1467 0.303741L26.277 0.303742Z" fill="#9AB8DC"/>
</svg>
