<svg width="27" height="27" viewBox="0 0 27 27" fill="none" xmlns="http://www.w3.org/2000/svg">
<path fill-rule="evenodd" clip-rule="evenodd" d="M0.362305 12.824C0.362305 5.66509 5.97316 0.362549 13.2092 0.362549C20.4451 0.362549 26.056 5.6683 26.056 12.8272C26.056 19.9861 20.4451 25.2886 13.2092 25.2886C11.9084 25.2886 10.6623 25.1152 9.48999 24.794C9.26196 24.733 9.01787 24.7491 8.80268 24.8454L6.25258 25.9695C6.09857 26.0375 5.93022 26.0665 5.76235 26.0542C5.59447 26.0418 5.43219 25.9884 5.28978 25.8987C5.14738 25.8089 5.0292 25.6855 4.94563 25.5394C4.86207 25.3933 4.81567 25.2289 4.81053 25.0606L4.73987 22.7739C4.73344 22.4912 4.60498 22.2279 4.39621 22.0416C1.8975 19.8063 0.362305 16.5688 0.362305 12.824ZM9.26839 10.4827L5.49463 16.4693C5.13171 17.0442 5.83829 17.6897 6.37785 17.2786L10.431 14.2018C10.5644 14.1005 10.7271 14.0454 10.8946 14.0448C11.0621 14.0443 11.2252 14.0982 11.3592 14.1986L14.3622 16.45C14.5752 16.61 14.819 16.724 15.0783 16.785C15.3376 16.846 15.6067 16.8525 15.8687 16.8042C16.1307 16.756 16.3798 16.6539 16.6003 16.5045C16.8208 16.355 17.008 16.1615 17.1499 15.9361L20.9269 9.95272C21.2866 9.37783 20.58 8.72906 20.0405 9.14016L15.9873 12.217C15.8539 12.3183 15.6912 12.3734 15.5237 12.374C15.3563 12.3745 15.1932 12.3206 15.0591 12.2202L12.0562 9.96878C11.8432 9.80882 11.5993 9.69475 11.34 9.63378C11.0807 9.57281 10.8116 9.56627 10.5496 9.61455C10.2877 9.66284 10.0386 9.76492 9.81803 9.91433C9.59751 10.0637 9.41036 10.2573 9.26839 10.4827Z" fill="#586E8A"/>
</svg>
