<svg width="32" height="29" viewBox="0 0 32 29" fill="none" xmlns="http://www.w3.org/2000/svg">
<path d="M15.4256 13.29L3.1223 5.42276V21.1864C3.1223 21.3245 3.16665 21.438 3.25533 21.5266C3.34402 21.6153 3.45744 21.6597 3.5956 21.6597H17.348V23.9666H3.5956C2.81869 23.9666 2.16111 23.6974 1.62284 23.1591C1.08456 22.6209 0.81543 21.9633 0.81543 21.1864V3.67799C0.81543 2.90109 1.08456 2.2435 1.62284 1.70523C2.16111 1.16696 2.81869 0.897827 3.5956 0.897827H27.2557C28.0326 0.897827 28.6901 1.16696 29.2284 1.70523C29.7667 2.2435 30.0358 2.90109 30.0358 3.67799V14.3546H27.7289V5.42276L15.4256 13.29ZM15.4256 10.8943L27.4925 3.2047H3.35876L15.4256 10.8943ZM25.8954 28.4177L24.2894 26.8117L27.0815 23.9666H20.1282V21.6597H27.0961L24.2509 18.8145L25.8954 17.2086L31.4999 22.8131L25.8954 28.4177ZM3.1223 5.42276V22.9461V14.3546V14.5437V3.2047V5.42276Z" fill="#586E8A"/>
</svg>
