<svg width="26" height="27" viewBox="0 0 26 27" fill="none" xmlns="http://www.w3.org/2000/svg">
<g clip-path="url(#clip0_123_298)">
<path d="M23.867 0.363281H1.97211C0.923288 0.363281 0.0751953 1.1913 0.0751953 2.21503V24.2002C0.0751953 25.2239 0.923288 26.057 1.97211 26.057H23.867C24.9158 26.057 25.7689 25.2239 25.7689 24.2052V2.21503C25.7689 1.1913 24.9158 0.363281 23.867 0.363281ZM7.69799 22.2581H3.88408V9.9934H7.69799V22.2581ZM5.79104 8.3223C4.56657 8.3223 3.57797 7.3337 3.57797 6.11425C3.57797 4.89481 4.56657 3.9062 5.79104 3.9062C7.01049 3.9062 7.99909 4.89481 7.99909 6.11425C7.99909 7.32868 7.01049 8.3223 5.79104 8.3223ZM21.97 22.2581H18.1611V16.2964C18.1611 14.8762 18.1361 13.0445 16.1789 13.0445C14.1967 13.0445 13.8956 14.5952 13.8956 16.196V22.2581H10.0917V9.9934H13.745V11.6695H13.7952C14.3021 10.706 15.5466 9.68728 17.3984 9.68728C21.2574 9.68728 21.97 12.2265 21.97 15.5286V22.2581V22.2581Z" fill="#586E8A"/>
</g>
<defs>
<clipPath id="clip0_123_298">
<rect width="25.6937" height="25.6937" fill="white" transform="translate(0.0751953 0.363281)"/>
</clipPath>
</defs>
</svg>
