<svg width="27" height="27" viewBox="0 0 27 27" fill="none" xmlns="http://www.w3.org/2000/svg">
<g clip-path="url(#clip0_123_299)">
<path d="M13.6344 0.363281C6.53939 0.363281 0.787598 6.11507 0.787598 13.2101C0.787598 19.2348 4.93559 24.2903 10.5312 25.6788V17.1361H7.88214V13.2101H10.5312V11.5185C10.5312 7.1459 12.5101 5.11918 16.803 5.11918C17.617 5.11918 19.0214 5.279 19.5959 5.4383V8.99688C19.2927 8.96502 18.766 8.94909 18.1118 8.94909C16.0055 8.94909 15.1915 9.74713 15.1915 11.8216V13.2101H19.3878L18.6668 17.1361H15.1915V25.9629C21.5527 25.1947 26.4818 19.7785 26.4818 13.2101C26.4813 6.11507 20.7295 0.363281 13.6344 0.363281Z" fill="#586E8A"/>
</g>
<defs>
<clipPath id="clip0_123_299">
<rect width="25.6937" height="25.6937" fill="white" transform="translate(0.787598 0.363281)"/>
</clipPath>
</defs>
</svg>
