<svg width="27" height="27" viewBox="0 0 27 27" fill="none" xmlns="http://www.w3.org/2000/svg">
<path d="M0.649902 26.0562L2.45595 19.4583C1.34149 17.527 0.755889 15.3377 0.756959 13.0927C0.760171 6.07404 6.47167 0.362549 13.4893 0.362549C16.8947 0.363619 20.0915 1.69006 22.496 4.0967C24.8994 6.50334 26.2226 9.70221 26.2216 13.1045C26.2183 20.1242 20.5068 25.8357 13.4893 25.8357C11.3588 25.8346 9.25943 25.3004 7.39985 24.2855L0.649902 26.0562ZM7.71246 21.9806C9.50673 23.0458 11.2196 23.6839 13.485 23.6849C19.3174 23.6849 24.0686 18.938 24.0718 13.1023C24.074 7.25488 19.3453 2.5144 13.4935 2.51225C7.65679 2.51225 2.90881 7.25916 2.90667 13.0938C2.90559 15.4758 3.60361 17.2594 4.77588 19.1254L3.70638 23.0308L7.71246 21.9806ZM19.903 16.131C19.8238 15.9982 19.6119 15.919 19.2928 15.7595C18.9749 15.6 17.4108 14.8302 17.1185 14.7243C16.8273 14.6183 16.6153 14.5647 16.4023 14.8838C16.1903 15.2017 15.5801 15.919 15.3949 16.131C15.2097 16.343 15.0234 16.3697 14.7054 16.2102C14.3875 16.0507 13.3619 15.7156 12.1468 14.6311C11.2014 13.7875 10.5623 12.7458 10.3771 12.4268C10.1919 12.1088 10.3578 11.9365 10.5163 11.778C10.6597 11.6357 10.8342 11.4066 10.9938 11.2203C11.1554 11.0361 11.2079 10.9034 11.3149 10.6903C11.4209 10.4784 11.3685 10.2921 11.2882 10.1326C11.2079 9.97413 10.572 8.40789 10.3075 7.7709C10.0484 7.15104 9.78615 7.23454 9.59131 7.22491L8.98108 7.2142C8.76911 7.2142 8.42439 7.29342 8.13319 7.61245C7.842 7.93148 7.0198 8.70015 7.0198 10.2664C7.0198 11.8326 8.15995 13.3454 8.3184 13.5573C8.47791 13.7693 10.5612 16.9832 13.7526 18.361C14.5116 18.6886 15.1047 18.8845 15.5662 19.0312C16.3284 19.2731 17.0221 19.2388 17.5703 19.1575C18.1816 19.0665 19.4523 18.3877 19.7178 17.6448C19.9833 16.9007 19.9833 16.2637 19.903 16.131Z" fill="#586E8A"/>
</svg>
