<svg width="41" height="40" viewBox="0 0 41 40" fill="none" xmlns="http://www.w3.org/2000/svg">
<path d="M40.5916 12.0001C40.5916 12.0001 40.1912 9.24225 38.958 8.03131C37.3965 6.43756 35.6508 6.42975 34.85 6.336C29.1164 5.92975 20.508 5.92975 20.508 5.92975H20.492C20.492 5.92975 11.8836 5.92975 6.15 6.336C5.34922 6.42975 3.60352 6.43756 2.04199 8.03131C0.808789 9.24225 0.416406 12.0001 0.416406 12.0001C0.416406 12.0001 0 15.2422 0 18.4766V21.5079C0 24.7422 0.408398 27.9844 0.408398 27.9844C0.408398 27.9844 0.808789 30.7423 2.03398 31.9532C3.59551 33.5469 5.64551 33.4922 6.5584 33.6641C9.8416 33.9688 20.5 34.0626 20.5 34.0626C20.5 34.0626 29.1164 34.0469 34.85 33.6485C35.6508 33.5548 37.3965 33.5469 38.958 31.9532C40.1912 30.7423 40.5916 27.9844 40.5916 27.9844C40.5916 27.9844 41 24.7501 41 21.5079V18.4766C41 15.2422 40.5916 12.0001 40.5916 12.0001ZM16.2639 25.1876V13.9454L27.3387 19.586L16.2639 25.1876Z" fill="white"/>
</svg>
